<svg width="820" height="321" viewBox="0 0 820 321" fill="none" xmlns="http://www.w3.org/2000/svg">
<path d="M602.371 239.866C602.864 239.996 603.381 239.999 603.875 239.877C604.369 239.755 604.825 239.511 605.2 239.167H620.713L616.85 253.584C616.727 254.035 616.709 254.509 616.799 254.968C616.889 255.427 617.083 255.859 617.367 256.23C617.65 256.598 618.014 256.897 618.43 257.102C618.847 257.308 619.305 257.416 619.77 257.417H630.75L627.313 261.188C626.774 261.786 626.493 262.573 626.533 263.377C626.573 264.181 626.93 264.936 627.526 265.477C628.084 265.984 628.81 266.266 629.564 266.268C629.988 266.267 630.408 266.177 630.795 266.004C631.183 265.831 631.53 265.579 631.815 265.264L639.875 256.413C640.274 255.971 640.535 255.421 640.625 254.832C640.715 254.244 640.63 253.641 640.38 253.1C640.131 252.559 639.728 252.103 639.222 251.789C638.716 251.475 638.128 251.317 637.533 251.333H623.724L627.708 236.916C627.827 236.462 627.84 235.988 627.745 235.529C627.65 235.07 627.45 234.639 627.161 234.27C626.868 233.889 626.49 233.583 626.056 233.377C625.623 233.171 625.147 233.07 624.667 233.083H603.375C602.688 233.06 602.014 233.269 601.462 233.678C600.909 234.087 600.512 234.671 600.333 235.334V236.125C600.115 236.891 600.207 237.712 600.588 238.412C600.969 239.112 601.609 239.634 602.371 239.866ZM641.913 288.715L587.163 233.965C586.571 233.534 585.843 233.33 585.113 233.393C584.383 233.455 583.7 233.778 583.19 234.303C582.679 234.829 582.375 235.521 582.334 236.252C582.293 236.984 582.517 237.705 582.965 238.285L596.105 251.333L592.273 265.751C592.154 266.204 592.142 266.679 592.237 267.138C592.332 267.597 592.531 268.028 592.82 268.397C593.104 268.765 593.468 269.063 593.884 269.269C594.301 269.475 594.759 269.582 595.223 269.583H606.903L601.398 290.084C601.22 290.746 601.27 291.448 601.54 292.077C601.811 292.706 602.286 293.226 602.888 293.552C603.337 293.794 603.839 293.919 604.348 293.917C604.773 293.916 605.192 293.826 605.58 293.653C605.968 293.48 606.315 293.228 606.599 292.913L621.351 276.67L637.715 293.035C637.998 293.32 638.335 293.546 638.705 293.7C639.076 293.855 639.473 293.934 639.875 293.934C640.277 293.934 640.674 293.855 641.045 293.7C641.415 293.546 641.752 293.32 642.035 293.035C642.32 292.752 642.546 292.415 642.7 292.045C642.855 291.674 642.934 291.277 642.934 290.875C642.934 290.473 642.855 290.076 642.7 289.705C642.546 289.335 642.32 288.998 642.035 288.715H641.913ZM599.177 263.5L601.094 256.383L608.211 263.5H599.177ZM610.523 279.56L613.565 268.732L617.215 272.351L610.523 279.56Z" fill="#F9FFE9"/>
<path d="M465.785 95.6032C471.513 98.0632 476.706 101.62 481.068 106.074C485.485 110.572 489 115.872 491.426 121.69C493.965 127.769 495.288 134.287 495.321 140.875C495.367 147.537 494.147 154.013 491.693 160.112C489.351 165.965 485.909 171.314 481.553 175.87C477.256 180.389 472.113 184.018 466.416 186.552C460.562 189.164 454.229 190.532 447.819 190.569L358.807 191.186C339.961 191.317 324.738 207.229 324.873 226.669C325.008 246.106 340.454 261.816 359.296 261.686L400.31 261.401L400.233 250.263C400.216 247.92 402.034 246.015 404.305 245.999L419.489 245.894C426.702 233.657 439.715 225.448 454.62 225.345L471.853 225.225L471.81 219.09C471.794 216.759 473.612 214.85 475.883 214.834L491.877 214.723C493.773 214.71 495.38 216.022 495.859 217.815L496.031 242.61L536.578 242.329C538.841 242.302 540.693 244.185 540.709 246.524L540.748 252.162C540.765 254.505 538.939 256.406 536.676 256.422L496.129 256.703L496.282 278.842L536.83 278.561C539.093 278.545 540.945 280.428 540.961 282.764L541 288.406C541.016 290.737 539.191 292.646 536.927 292.662L496.38 292.943L496.552 317.735C496.337 318.623 495.833 319.414 495.119 319.985C494.406 320.556 493.523 320.874 492.61 320.889L476.619 321C474.349 321.016 472.504 319.133 472.488 316.805L472.446 310.666L455.213 310.786C440.304 310.889 427.186 302.869 419.8 290.726L404.616 290.831C402.345 290.847 400.501 288.972 400.485 286.636L400.408 275.494L359.394 275.779C352.934 275.823 346.659 274.556 340.739 272.028C335.008 269.571 329.816 266.014 325.455 261.557C321.035 257.062 317.516 251.761 315.09 245.942C312.551 239.874 311.245 233.411 311.199 226.757C311.153 220.102 312.369 213.614 314.823 207.519C317.165 201.666 320.61 196.318 324.971 191.765C329.263 187.241 334.408 183.61 340.108 181.079C345.963 178.468 352.298 177.101 358.709 177.067L447.721 176.449C466.563 176.318 481.79 160.406 481.655 140.962C481.52 121.525 466.069 105.815 447.231 105.946L310.367 106.895L310.269 92.8025L447.133 91.8528C453.586 91.808 459.868 93.0755 465.785 95.6032Z" fill="white"/>
<path d="M217.016 106.637V93.5003L274.977 1.80304H284.508V22.1516H278.068L234.276 91.4397V92.47H312.329V106.637H217.016ZM279.098 133.682V1.80304H294.297V133.682H279.098Z" fill="white"/>
<path d="M0 106.637V93.5003L57.9601 1.80304H67.4914V22.1516H61.0513L17.2592 91.4397V92.47H95.3122V106.637H0ZM62.0817 133.682V1.80304H77.2802V133.682H62.0817Z" fill="white"/>
<path d="M160.362 135.485C150.659 135.485 142.394 132.845 135.567 127.565C128.741 122.242 123.525 114.536 119.918 104.447C116.312 94.316 114.509 82.0811 114.509 67.7426C114.509 53.4901 116.312 41.3196 119.918 31.2312C123.568 21.0998 128.805 13.3725 135.632 8.04926C142.501 2.68309 150.744 0 160.362 0C169.979 0 178.2 2.68309 185.027 8.04926C191.896 13.3725 197.134 21.0998 200.74 31.2312C204.39 41.3196 206.214 53.4901 206.214 67.7426C206.214 82.0811 204.411 94.316 200.805 104.447C197.198 114.536 191.982 122.242 185.156 127.565C178.329 132.845 170.064 135.485 160.362 135.485ZM160.362 121.319C169.979 121.319 177.449 116.682 182.773 107.409C188.096 98.1367 190.758 84.9144 190.758 67.7426C190.758 56.3234 189.535 46.5999 187.088 38.5721C184.683 30.5443 181.206 24.4268 176.655 20.2198C172.147 16.0127 166.716 13.9091 160.362 13.9091C150.83 13.9091 143.381 18.6099 138.015 28.0114C132.648 37.3701 129.965 50.6138 129.965 67.7426C129.965 79.1619 131.167 88.8639 133.571 96.8488C135.975 104.834 139.431 110.908 143.939 115.072C148.49 119.236 153.964 121.319 160.362 121.319Z" fill="white"/>
<path d="M728.977 208.021C731.216 205.27 734.512 204 737.72 204H796.099C799.298 204 802.594 205.27 804.841 208.021C809.546 213.784 819.818 228.647 819.818 248.769C819.818 268.891 809.546 283.746 804.841 289.517C802.594 292.269 799.306 293.538 796.099 293.538H737.72C734.512 293.538 731.216 292.269 728.977 289.517C724.273 283.746 714 268.891 714 248.769C714 228.647 724.273 213.792 728.977 208.021ZM737.72 212.14C737.263 212.118 736.807 212.199 736.386 212.377C735.965 212.554 735.589 212.824 735.286 213.165C731.086 218.318 722.14 231.374 722.14 248.769C722.14 266.164 731.086 279.212 735.286 284.373C735.774 284.967 736.613 285.399 737.728 285.399H796.091C797.206 285.399 798.044 284.967 798.532 284.373C802.733 279.22 811.678 266.164 811.678 248.769C811.678 231.374 802.733 218.326 798.532 213.165C798.228 212.823 797.851 212.552 797.428 212.375C797.005 212.197 796.548 212.117 796.091 212.14H737.72Z" fill="white"/>
<path d="M750.629 228.42C751.709 228.42 752.744 228.848 753.507 229.612C754.271 230.375 754.699 231.41 754.699 232.49V244.699C754.699 245.779 754.271 246.814 753.507 247.577C752.744 248.34 751.709 248.769 750.629 248.769C749.55 248.769 748.515 248.34 747.752 247.577C746.988 246.814 746.559 245.779 746.559 244.699V232.49C746.559 231.41 746.988 230.375 747.752 229.612C748.515 228.848 749.55 228.42 750.629 228.42ZM783.189 228.42C784.268 228.42 785.303 228.848 786.067 229.612C786.83 230.375 787.259 231.41 787.259 232.49V244.699C787.259 245.779 786.83 246.814 786.067 247.577C785.303 248.34 784.268 248.769 783.189 248.769C782.109 248.769 781.074 248.34 780.311 247.577C779.548 246.814 779.119 245.779 779.119 244.699V232.49C779.119 231.41 779.548 230.375 780.311 229.612C781.074 228.848 782.109 228.42 783.189 228.42ZM758.769 265.049V273.189H775.049V265.049C775.049 262.89 774.191 260.82 772.665 259.293C771.138 257.767 769.068 256.909 766.909 256.909C764.75 256.909 762.68 257.767 761.153 259.293C759.627 260.82 758.769 262.89 758.769 265.049Z" fill="white"/>
<path d="M356.344 73.432C354.072 73.432 352.104 72.936 350.44 71.944C348.776 70.952 347.48 69.56 346.552 67.768C345.656 65.944 345.208 63.8 345.208 61.336C345.208 59.48 345.464 57.816 345.976 56.344C346.488 54.84 347.24 53.56 348.232 52.504C349.224 51.448 350.392 50.648 351.736 50.104C353.112 49.528 354.648 49.24 356.344 49.24C358.616 49.24 360.584 49.736 362.248 50.728C363.912 51.72 365.192 53.128 366.088 54.952C367.016 56.744 367.48 58.872 367.48 61.336C367.48 63.192 367.224 64.856 366.712 66.328C366.2 67.8 365.448 69.08 364.456 70.168C363.464 71.224 362.28 72.04 360.904 72.616C359.56 73.16 358.04 73.432 356.344 73.432ZM356.344 70.312C357.784 70.312 359.048 69.96 360.136 69.256C361.224 68.552 362.056 67.528 362.632 66.184C363.24 64.84 363.544 63.224 363.544 61.336C363.544 58.424 362.888 56.2 361.576 54.664C360.296 53.128 358.552 52.36 356.344 52.36C354.872 52.36 353.592 52.712 352.504 53.416C351.448 54.088 350.616 55.096 350.008 56.44C349.432 57.752 349.144 59.384 349.144 61.336C349.144 64.216 349.8 66.44 351.112 68.008C352.424 69.544 354.168 70.312 356.344 70.312Z" fill="#F9FFE9"/>
<path d="M383.016 73.432C380.744 73.432 378.776 72.936 377.112 71.944C375.448 70.952 374.152 69.56 373.224 67.768C372.328 65.944 371.88 63.8 371.88 61.336C371.88 59.48 372.136 57.816 372.648 56.344C373.16 54.84 373.912 53.56 374.904 52.504C375.896 51.448 377.064 50.648 378.408 50.104C379.784 49.528 381.32 49.24 383.016 49.24C385.288 49.24 387.256 49.736 388.92 50.728C390.584 51.72 391.864 53.128 392.76 54.952C393.688 56.744 394.152 58.872 394.152 61.336C394.152 63.192 393.896 64.856 393.384 66.328C392.872 67.8 392.12 69.08 391.128 70.168C390.136 71.224 388.952 72.04 387.576 72.616C386.232 73.16 384.712 73.432 383.016 73.432ZM383.016 70.312C384.456 70.312 385.72 69.96 386.808 69.256C387.896 68.552 388.728 67.528 389.304 66.184C389.912 64.84 390.216 63.224 390.216 61.336C390.216 58.424 389.56 56.2 388.248 54.664C386.968 53.128 385.224 52.36 383.016 52.36C381.544 52.36 380.264 52.712 379.176 53.416C378.12 54.088 377.288 55.096 376.68 56.44C376.104 57.752 375.816 59.384 375.816 61.336C375.816 64.216 376.472 66.44 377.784 68.008C379.096 69.544 380.84 70.312 383.016 70.312Z" fill="#F9FFE9"/>
<path d="M401.912 81.976C401.272 81.976 400.792 81.8 400.472 81.448C400.152 81.128 399.992 80.648 399.992 80.008V51.304C399.992 50.664 400.152 50.184 400.472 49.864C400.792 49.512 401.256 49.336 401.864 49.336C402.504 49.336 402.984 49.512 403.304 49.864C403.656 50.184 403.832 50.664 403.832 51.304V55.864L403.304 55.192C403.816 53.368 404.824 51.928 406.328 50.872C407.864 49.784 409.688 49.24 411.8 49.24C413.88 49.24 415.688 49.736 417.224 50.728C418.792 51.688 419.992 53.08 420.824 54.904C421.688 56.696 422.12 58.84 422.12 61.336C422.12 63.8 421.688 65.944 420.824 67.768C419.992 69.56 418.808 70.952 417.272 71.944C415.736 72.936 413.912 73.432 411.8 73.432C409.688 73.432 407.88 72.904 406.376 71.848C404.872 70.76 403.848 69.32 403.304 67.528H403.88V80.008C403.88 80.648 403.704 81.128 403.352 81.448C403 81.8 402.52 81.976 401.912 81.976ZM410.984 70.312C412.456 70.312 413.72 69.96 414.776 69.256C415.864 68.552 416.696 67.528 417.272 66.184C417.88 64.84 418.184 63.224 418.184 61.336C418.184 58.424 417.528 56.2 416.216 54.664C414.936 53.128 413.192 52.36 410.984 52.36C409.544 52.36 408.28 52.712 407.192 53.416C406.104 54.088 405.256 55.096 404.648 56.44C404.072 57.752 403.784 59.384 403.784 61.336C403.784 64.216 404.44 66.44 405.752 68.008C407.064 69.544 408.808 70.312 410.984 70.312Z" fill="#F9FFE9"/>
<path d="M435.848 73.432C434.408 73.432 432.952 73.256 431.48 72.904C430.04 72.552 428.696 71.944 427.448 71.08C427.128 70.856 426.904 70.6 426.776 70.312C426.648 69.992 426.6 69.688 426.632 69.4C426.696 69.08 426.824 68.808 427.016 68.584C427.24 68.36 427.496 68.232 427.784 68.2C428.104 68.136 428.456 68.2 428.84 68.392C430.088 69.16 431.288 69.704 432.44 70.024C433.624 70.312 434.792 70.456 435.944 70.456C437.768 70.456 439.144 70.12 440.072 69.448C441 68.776 441.464 67.864 441.464 66.712C441.464 65.816 441.16 65.112 440.552 64.6C439.944 64.056 438.984 63.64 437.672 63.352L433.304 62.392C431.288 61.976 429.784 61.256 428.792 60.232C427.832 59.208 427.352 57.88 427.352 56.248C427.352 54.808 427.72 53.576 428.456 52.552C429.224 51.496 430.296 50.68 431.672 50.104C433.048 49.528 434.648 49.24 436.472 49.24C437.88 49.24 439.208 49.432 440.456 49.816C441.736 50.168 442.888 50.744 443.912 51.544C444.232 51.768 444.44 52.04 444.536 52.36C444.664 52.648 444.68 52.952 444.584 53.272C444.52 53.56 444.376 53.816 444.152 54.04C443.928 54.232 443.656 54.344 443.336 54.376C443.016 54.408 442.68 54.312 442.328 54.088C441.368 53.448 440.392 52.984 439.4 52.696C438.408 52.376 437.432 52.216 436.472 52.216C434.68 52.216 433.32 52.568 432.392 53.272C431.464 53.976 431 54.904 431 56.056C431 56.952 431.288 57.688 431.864 58.264C432.44 58.84 433.336 59.256 434.552 59.512L438.92 60.424C441 60.872 442.552 61.592 443.576 62.584C444.632 63.544 445.16 64.856 445.16 66.52C445.16 68.632 444.312 70.312 442.616 71.56C440.92 72.808 438.664 73.432 435.848 73.432Z" fill="#F9FFE9"/>
</svg>
