<?xml version="1.0" encoding="utf-8"?>
<!-- Generator: Adobe Illustrator 24.3.0, SVG Export Plug-In . SVG Version: 6.00 Build 0)  -->
<svg version="1.1" id="Layer_1" xmlns="http://www.w3.org/2000/svg" xmlns:xlink="http://www.w3.org/1999/xlink" x="0px" y="0px"
	 viewBox="0 0 199.9 193.8" style="enable-background:new 0 0 199.9 193.8;" xml:space="preserve">
<style type="text/css">
	.st0{fill:#FFFFFF;}
</style>
<g>
	<ellipse class="st0" cx="100" cy="96.9" rx="97.6" ry="96.9"/>
	<path d="M187.3,95.8c-6.5-3-14.4-4.3-24-4.3h-62.2V41.4H20c-3,4.2-5.6,8.6-7.9,13.2V63H75v38.1c0,7.4-2.1,13-6.4,17
		c-4.3,4-10.6,5.9-19.2,5.9s-10.5-0.9-14.3-2.7c-3.8-1.8-6.7-4.3-8.6-7.8c-1.9-3.5-2.8-7.6-2.8-12.6v-1.9H2.3
		c0.3,12,2.7,23.3,7,33.9c3.1,3,6.9,5.4,11.1,7.4c7.7,3.6,17.3,5.2,28.8,5.2c17.2,0,30.2-3.9,38.8-11.6c3.9-3.4,6.9-7.4,9-12.1v71.8
		c0.9,0,1.9,0,2.9,0c8.1,0,15.9-1,23.4-2.8v-28.6h40.1c3.2,0,6.1-0.2,9-0.5c14.4-15.9,23.7-36.6,25.1-59.3
		C194.7,100,191.3,97.7,187.3,95.8L187.3,95.8z M178.3,134.6c-1.3,2.2-3.4,3.9-6.1,5c-2.7,1.2-6,1.9-10,1.9h-40.4v-29.2h40.4
		c3.9,0,7.3,0.6,10,1.8c2.7,1.2,4.7,2.9,6.1,5c1.3,2.2,2,4.7,2,7.7C180.3,129.8,179.6,132.5,178.3,134.6z"/>
</g>
</svg>
