<?xml version="1.0" encoding="UTF-8"?>
<svg id="Layer_1" data-name="Layer 1" xmlns="http://www.w3.org/2000/svg" version="1.1" viewBox="0 0 518.9 196.1">
  <defs>
    <style>
      .cls-1 {
        fill: #000;
      }

      .cls-1, .cls-2, .cls-3 {
        stroke-width: 0px;
      }

      .cls-2 {
        fill: #231f20;
      }

      .cls-3 {
        fill: #fff;
      }
    </style>
  </defs>
  <g>
    <path class="cls-1" d="M99.3,92.5h62.5c9.6,0,17.6,1.5,24.1,4.4,4,1.8,7.3,4.1,10.1,6.8.1-1.9.2-3.8.2-5.7C196.1,43.9,152.2,0,98,0S35.5,16.5,17.8,41.8h81.5v50.7Z"/>
    <path class="cls-1" d="M86.2,135.6c-8.7,7.8-21.7,11.7-39,11.7s-21.2-1.8-28.9-5.3c-4.4-2-8.1-4.5-11.2-7.5,14.1,35.3,48.2,60.4,88.2,61.6v-72.6c-2.2,4.7-5.2,8.8-9,12.2Z"/>
    <path class="cls-1" d="M121.5,164.3v28.9c19.3-4.7,36.3-15.2,49.2-29.4-2.8.3-5.8.5-9,.5h-40.3Z"/>
    <path class="cls-1" d="M170.8,115.5c-2.7-1.2-6-1.8-10-1.8h-40.6v29.5h40.6c3.9,0,7.3-.6,10-1.9,2.7-1.2,4.7-2.9,6.1-5.1,1.3-2.2,2-4.8,2-7.8s-.7-5.6-2-7.8c-1.3-2.2-3.4-3.9-6.1-5.1Z"/>
    <path class="cls-1" d="M21.4,102.2c0,4.9.9,9.2,2.8,12.7,1.9,3.5,4.7,6.1,8.6,7.9,3.8,1.8,8.6,2.7,14.4,2.7,8.6,0,15-2,19.3-6,4.3-4,6.4-9.7,6.4-17.2v-38.5H9.9v-8.5C3.5,68.1,0,82.7,0,98s0,1.5,0,2.2h21.4v1.9Z"/>
    <path class="cls-3" d="M95.2,196.1h0c0,0,26.3,0,26.3,0v-2.9c-7.5,1.9-15.4,2.8-23.5,2.8s-1.9,0-2.9,0Z"/>
    <path class="cls-3" d="M185.9,97c-6.5-3-14.5-4.4-24.1-4.4h-62.5v-50.7H17.8c-3,4.2-5.6,8.7-7.9,13.4v8.5h63.1v38.5c0,7.5-2.1,13.2-6.4,17.2-4.3,4-10.7,6-19.3,6s-10.5-.9-14.4-2.7c-3.8-1.8-6.7-4.4-8.6-7.9-1.9-3.5-2.8-7.7-2.8-12.7v-1.9H0c.3,12.1,2.7,23.6,7,34.3,3.1,3,6.9,5.5,11.2,7.5,7.7,3.6,17.4,5.3,28.9,5.3,17.3,0,30.3-3.9,39-11.7,3.9-3.4,6.9-7.5,9-12.2v72.6c.9,0,1.9,0,2.9,0,8.1,0,16-1,23.5-2.8v-28.9h40.3c3.2,0,6.1-.2,9-.5,14.5-16.1,23.8-37,25.2-60-2.7-2.7-6.1-5-10.1-6.8ZM176.8,136.2c-1.3,2.2-3.4,3.9-6.1,5.1-2.7,1.2-6,1.9-10,1.9h-40.6v-29.5h40.6c3.9,0,7.3.6,10,1.8,2.7,1.2,4.7,2.9,6.1,5.1,1.3,2.2,2,4.8,2,7.8s-.7,5.7-2,7.8Z"/>
  </g>
  <g>
    <path class="cls-2" d="M234.1,102.2c-5,0-9.2-.8-12.5-2.3-3.3-1.5-5.9-3.7-7.5-6.6-1.7-2.9-2.5-6.3-2.5-10.4v-1.7h4.9v1.6c0,3.2.6,6,1.9,8.2,1.3,2.3,3.2,4,5.9,5.2,2.6,1.2,5.9,1.8,9.8,1.8,5.9,0,10.3-1.3,13.3-3.9,2.9-2.6,4.4-6.4,4.4-11.2v-24.9h-33.4v-4.3h38.3v29.3c0,6.1-1.9,10.8-5.7,14.2s-9.4,5.1-16.9,5.1Z"/>
    <path class="cls-2" d="M288.3,102.2c-4,0-7.5-.8-10.4-2.4s-5.2-3.9-6.7-6.9-2.4-6.6-2.4-10.7v-15.2h4.4v14.4c0,3.6.6,6.6,1.9,9.2,1.3,2.6,3.2,4.5,5.6,5.8,2.5,1.3,5.4,2,8.8,2,5.1,0,9.2-1.5,12-4.5,2.9-3,4.3-7.2,4.3-12.5v-14.4h4.5v34.4h-4.6l1-11.4h-.8c-.5,2.3-1.6,4.3-3.1,6.2-1.5,1.8-3.5,3.3-6,4.4s-5.4,1.6-8.7,1.6Z"/>
    <path class="cls-2" d="M322.7,101.4v-34.4h4.6l-1,11.4h.8c.5-2.3,1.6-4.3,3.1-6.2,1.5-1.8,3.6-3.3,6.2-4.4,2.6-1.1,5.5-1.6,9-1.6s7.7.8,10.7,2.4c3,1.6,5.3,4,6.9,7,1.6,3.1,2.4,6.7,2.4,10.9v14.8h-4.5v-13.9c0-3.7-.7-6.8-2-9.4-1.3-2.6-3.2-4.6-5.8-5.9-2.5-1.4-5.5-2.1-9.1-2.1-5.3,0-9.4,1.5-12.4,4.5-3,3-4.5,7.3-4.5,12.9v13.9h-4.4Z"/>
    <path class="cls-2" d="M392.1,102.2c-5.5,0-9.6-.9-12.1-2.8-2.6-1.8-3.9-4.4-3.9-7.6s1.3-5.6,3.9-7.5c2.6-1.9,6.6-2.8,12.1-2.8s8.4.5,11.6,1.5c3.2,1,6.2,2.3,9,4.1v-3.9c0-2.7-.6-5-1.8-7-1.2-2-3-3.5-5.5-4.6-2.5-1.1-5.6-1.6-9.3-1.6s-6.5.5-8.9,1.4c-2.4.9-4.2,2.1-5.5,3.5-1.3,1.4-2,2.9-2.2,4.5h-4.4c.2-2.4,1.1-4.5,2.7-6.5s3.9-3.6,7-4.8c3.1-1.2,6.9-1.8,11.4-1.8s8.6.7,11.7,2.1c3.1,1.4,5.4,3.3,7,5.9,1.5,2.6,2.3,5.6,2.3,9.2v11.3c0,1.3.3,2.2.9,2.8.6.6,1.4.9,2.6.9s1.5-.1,2.3-.3v3.6c-1,.3-2.1.5-3.1.5s-2.5-.2-3.5-.7c-1-.5-1.7-1.2-2.3-2.1-.5-.9-.8-2-.8-3.3v-.8h-.7c-.3,1.1-1.4,2.2-3.1,3.2-1.8,1-4.2,1.9-7.1,2.6-3,.7-6.4,1-10.2,1ZM393.4,98.6c4.2,0,8-.5,11.1-1.5,3.2-1,5.9-2.4,8.1-4v-3.1c-2.7-1.5-5.6-2.8-8.6-3.7-3-.9-6.6-1.3-10.7-1.3s-7.9.6-9.9,1.8c-2,1.2-3,2.9-3,5s1,3.8,2.9,5c2,1.2,5.3,1.8,9.9,1.8Z"/>
    <path class="cls-2" d="M425.7,101.4v-3.8h31.2v3.8h-31.2ZM440.1,75.8c0-2-.4-3.4-1.3-4.2-.8-.9-2.2-1.3-4.2-1.3s-1.7,0-2.5.3c-.7.2-1.6.4-2.5.8v-3.9c2-.7,4-1.1,6.2-1.1s3.6.3,4.9.9c1.3.6,2.2,1.5,2.8,2.7.6,1.2.9,2.8.9,4.6v26h-4.3v-24.7ZM441.3,60.2c-1,0-1.9-.3-2.5-.9-.6-.6-1-1.3-1-2.2s.3-1.6,1-2.2c.6-.6,1.5-.9,2.5-.9s1.8.3,2.5.9c.6.6,1,1.3,1,2.2s-.3,1.7-1,2.2c-.6.6-1.5.9-2.5.9Z"/>
    <path class="cls-2" d="M481.2,102.2c-4.2,0-7.9-.8-11-2.3-3.1-1.5-5.4-3.7-7.1-6.4-1.6-2.7-2.5-5.8-2.5-9.2s.8-6.6,2.5-9.3c1.6-2.7,4-4.8,7.1-6.4,3.1-1.5,6.7-2.3,11-2.3s6.6.5,9.2,1.5c2.6,1,4.7,2.3,6.3,3.9,1.6,1.6,2.8,3.5,3.5,5.6h.7c-.3-2.4-.5-4.5-.6-6.2-.1-1.7-.2-3.6-.2-5.6v-11.9h4.4v47.9h-4.6l1-10.3h-.7c-.7,2.1-1.9,4-3.5,5.7-1.6,1.6-3.7,3-6.3,3.9-2.6,1-5.7,1.5-9.2,1.5ZM482.6,98.4c3.7,0,6.8-.6,9.5-1.9s4.6-3,6-5.1c1.4-2.1,2.1-4.5,2.1-7.2s-.7-5.1-2.1-7.2-3.4-3.8-6-5.1c-2.6-1.3-5.8-1.9-9.5-1.9s-6.8.6-9.4,1.9c-2.6,1.3-4.6,3-6,5.1s-2.1,4.6-2.1,7.2.7,5,2.1,7.2c1.4,2.1,3.4,3.8,6,5.1,2.6,1.3,5.8,1.9,9.4,1.9Z"/>
  </g>
  <g>
    <path class="cls-2" d="M211.8,145.4v-30.6h18.8c2.6,0,4.8.4,6.5,1.2,1.8.8,3.1,2,4,3.4.9,1.5,1.3,3.2,1.3,5.2s-.4,3.7-1.3,5.2c-.9,1.5-2.2,2.6-4,3.4-1.8.8-3.9,1.2-6.5,1.2h-16.7v-2.8h16.7c1.9,0,3.5-.3,4.8-.9,1.3-.6,2.3-1.4,2.9-2.4.6-1,1-2.3,1-3.7s-.3-2.7-1-3.8c-.6-1-1.6-1.9-2.9-2.4s-2.9-.9-4.8-.9h-15.7v16c0,0,0,11.8,0,11.8h-3.1Z"/>
    <path class="cls-2" d="M258,145.9c-3.5,0-6.1-.6-7.8-1.8-1.6-1.2-2.5-2.8-2.5-4.8s.8-3.6,2.5-4.8c1.6-1.2,4.2-1.8,7.8-1.8s5.3.3,7.4.9c2,.6,4,1.5,5.8,2.6v-2.5c0-1.7-.4-3.2-1.2-4.5-.8-1.3-1.9-2.2-3.5-2.9-1.6-.7-3.6-1-5.9-1s-4.1.3-5.7.9c-1.5.6-2.7,1.3-3.5,2.2-.8.9-1.3,1.9-1.4,2.9h-2.8c.1-1.5.7-2.9,1.7-4.2,1-1.3,2.5-2.3,4.5-3.1,2-.8,4.4-1.2,7.3-1.2s5.5.4,7.5,1.3c2,.9,3.5,2.1,4.5,3.8,1,1.6,1.5,3.6,1.5,5.9v7.3c0,.8.2,1.4.5,1.8s.9.6,1.6.6.9,0,1.5-.2v2.3c-.7.2-1.3.3-2,.3s-1.6-.2-2.3-.5c-.6-.3-1.1-.8-1.4-1.3s-.5-1.3-.5-2.1v-.5h-.4c-.2.7-.9,1.4-2,2.1-1.1.7-2.7,1.2-4.6,1.7s-4.1.7-6.5.7ZM258.8,143.6c2.7,0,5.1-.3,7.1-1,2-.7,3.8-1.5,5.2-2.6v-2c-1.7-1-3.6-1.8-5.5-2.3-1.9-.6-4.2-.9-6.8-.9s-5.1.4-6.3,1.2c-1.3.8-1.9,1.8-1.9,3.2s.6,2.4,1.9,3.2c1.3.8,3.4,1.2,6.3,1.2Z"/>
    <path class="cls-2" d="M282.2,145.4v-22h2.9l-.6,6.6h.5c.3-1.3.9-2.5,1.8-3.5.9-1.1,2.1-1.9,3.6-2.6,1.5-.6,3.2-.9,5.2-.9s4.6.4,6.3,1.3c1.7.9,3,2.1,3.9,3.7.9,1.6,1.3,3.5,1.3,5.7v.5h-2.8v-.3c0-1.7-.4-3.1-1.1-4.4-.7-1.3-1.8-2.3-3.3-3-1.5-.7-3.2-1-5.2-1-3,0-5.4.9-7.1,2.6s-2.6,4.2-2.6,7.5v10h-2.8Z"/>
    <path class="cls-2" d="M322.6,145.9c-3.5,0-6.1-.6-7.8-1.8-1.6-1.2-2.5-2.8-2.5-4.8s.8-3.6,2.5-4.8c1.6-1.2,4.2-1.8,7.8-1.8s5.3.3,7.4.9c2,.6,4,1.5,5.8,2.6v-2.5c0-1.7-.4-3.2-1.2-4.5-.8-1.3-1.9-2.2-3.5-2.9-1.6-.7-3.6-1-5.9-1s-4.1.3-5.7.9c-1.5.6-2.7,1.3-3.5,2.2-.8.9-1.3,1.9-1.4,2.9h-2.8c.1-1.5.7-2.9,1.7-4.2,1-1.3,2.5-2.3,4.5-3.1,2-.8,4.4-1.2,7.3-1.2s5.5.4,7.5,1.3c2,.9,3.5,2.1,4.5,3.8,1,1.6,1.5,3.6,1.5,5.9v7.3c0,.8.2,1.4.5,1.8s.9.6,1.6.6.9,0,1.5-.2v2.3c-.7.2-1.3.3-2,.3s-1.6-.2-2.3-.5c-.6-.3-1.1-.8-1.4-1.3s-.5-1.3-.5-2.1v-.5h-.4c-.2.7-.9,1.4-2,2.1-1.1.7-2.7,1.2-4.6,1.7s-4.1.7-6.5.7ZM323.4,143.6c2.7,0,5.1-.3,7.1-1,2-.7,3.8-1.5,5.2-2.6v-2c-1.7-1-3.6-1.8-5.5-2.3-1.9-.6-4.2-.9-6.8-.9s-5.1.4-6.3,1.2c-1.3.8-1.9,1.8-1.9,3.2s.6,2.4,1.9,3.2c1.3.8,3.4,1.2,6.3,1.2Z"/>
    <path class="cls-2" d="M346.8,145.4v-22h2.9l-.6,5.7h.5c.5-1.8,1.6-3.3,3.1-4.4,1.5-1.2,3.5-1.7,6-1.7s3.2.3,4.5.9,2.3,1.4,3.1,2.4c.8,1,1.3,2.2,1.6,3.5h.4c.5-2,1.5-3.7,3.1-4.9,1.6-1.2,3.7-1.9,6.2-1.9s3.7.4,5.2,1.2c1.5.8,2.6,2,3.5,3.6.8,1.6,1.2,3.5,1.2,5.7v11.9h-2.8v-11.4c0-1.8-.3-3.3-1-4.6-.7-1.3-1.6-2.3-2.8-3-1.2-.7-2.6-1-4.3-1-2.4,0-4.4.8-5.9,2.3-1.5,1.5-2.2,3.7-2.2,6.4v11.4h-2.8v-11.4c0-1.8-.3-3.3-1-4.6-.7-1.3-1.6-2.3-2.8-3-1.2-.7-2.6-1-4.3-1-2.5,0-4.4.8-5.9,2.3-1.5,1.5-2.2,3.7-2.2,6.4v11.4h-2.8Z"/>
    <path class="cls-2" d="M410.3,145.9c-2.2,0-4.2-.3-5.8-.9-1.7-.6-3-1.5-4-2.5-1-1-1.8-2.3-2.2-3.6h-.5l.6,6.6h-2.9v-30.6h2.8v7.6c0,1.3,0,2.5-.1,3.6,0,1.1-.2,2.4-.4,4h.5c.5-1.3,1.2-2.5,2.2-3.6,1-1,2.4-1.9,4-2.5,1.7-.6,3.6-.9,5.8-.9s5.1.5,7,1.5,3.5,2.4,4.5,4.1c1.1,1.7,1.6,3.7,1.6,5.9s-.5,4.2-1.6,5.9c-1.1,1.7-2.6,3.1-4.5,4.1-2,1-4.3,1.5-7,1.5ZM409.4,143.5c2.3,0,4.3-.4,6-1.2,1.7-.8,3-1.9,3.8-3.3.9-1.4,1.3-2.9,1.3-4.6s-.4-3.3-1.3-4.6c-.9-1.4-2.2-2.5-3.8-3.3-1.7-.8-3.7-1.2-6-1.2s-4.3.4-6,1.2c-1.7.8-3,1.9-3.8,3.3-.9,1.4-1.3,2.9-1.3,4.6s.4,3.2,1.3,4.6c.9,1.4,2.2,2.5,3.8,3.3,1.7.8,3.7,1.2,6,1.2Z"/>
    <path class="cls-2" d="M442.9,145.9c-3,0-5.6-.5-7.8-1.5-2.2-1-3.8-2.4-4.9-4.1-1.1-1.7-1.7-3.7-1.7-5.8s.6-4.2,1.7-5.9c1.1-1.7,2.7-3.1,4.9-4.1,2.2-1,4.8-1.5,7.8-1.5s5.6.5,7.8,1.5c2.2,1,3.8,2.4,4.9,4.1,1.1,1.7,1.7,3.7,1.7,5.9s0,.8,0,1.2h-26.5v-2.2h24.5l-.7,1.5v-.5c0-1.7-.5-3.3-1.4-4.7-.9-1.4-2.2-2.5-4-3.3s-3.8-1.2-6.3-1.2-4.6.4-6.4,1.2-3.1,1.9-4,3.3c-.9,1.4-1.3,3-1.3,4.7s.5,3.3,1.4,4.7,2.2,2.5,4,3.3,3.9,1.2,6.3,1.2,5.5-.5,7.2-1.5c1.7-1,2.9-2.2,3.7-3.5h2.9c-.4,1.2-1.2,2.3-2.3,3.5-1.1,1.1-2.6,2-4.5,2.8s-4.2,1.1-7,1.1Z"/>
    <path class="cls-2" d="M463.7,145.4v-22h2.9l-.6,6.6h.5c.3-1.3.9-2.5,1.8-3.5.9-1.1,2.1-1.9,3.6-2.6,1.5-.6,3.2-.9,5.2-.9s4.6.4,6.3,1.3c1.7.9,3,2.1,3.9,3.7.9,1.6,1.3,3.5,1.3,5.7v.5h-2.8v-.3c0-1.7-.4-3.1-1.1-4.4-.7-1.3-1.8-2.3-3.3-3-1.5-.7-3.2-1-5.2-1-3,0-5.4.9-7.1,2.6s-2.6,4.2-2.6,7.5v10h-2.8Z"/>
    <path class="cls-2" d="M495.8,154.9c-.6,0-1.2,0-1.7-.1-.5,0-1-.2-1.6-.4v-2.4c1,.4,2.1.6,3,.6s2-.2,2.8-.5c.8-.4,1.4-.9,2-1.6.6-.7,1.3-1.7,2-2.9l1.5-2.6-.4,1.4-12.7-22.8h3.4l9.6,17.7s0,0,0,0,0,0,0,0c.3.5.5.9.6,1.4.1.4.2.8.2,1.1h.5c0-.7.3-1.5.8-2.5l9.7-17.7h3.3l-13.5,24c-1,1.9-2,3.3-2.9,4.4-.9,1-1.8,1.8-2.9,2.3-1.1.5-2.3.8-3.8.8Z"/>
  </g>
</svg>