<?xml version="1.0" encoding="UTF-8"?>
<svg xmlns="http://www.w3.org/2000/svg" version="1.1" viewBox="0 0 676.5 196.1">
  <defs>
    <style>
      .cls-1 {
        fill: #fff;
      }
    </style>
  </defs>
  <!-- Generator: Adobe Illustrator 28.6.0, SVG Export Plug-In . SVG Version: 1.2.0 Build 709)  -->
  <g>
    <g id="Layer_1">
      <g>
        <path d="M99.3,92.5h62.5c9.6,0,17.6,1.5,24.1,4.4,4,1.8,7.3,4.1,10.1,6.8.1-1.9.2-3.8.2-5.7C196.1,43.9,152.2,0,98,0S35.5,16.5,17.8,41.8h81.5v50.7Z"/>
        <path d="M86.2,135.6c-8.7,7.8-21.7,11.7-39,11.7s-21.2-1.8-28.9-5.3c-4.4-2-8.1-4.5-11.2-7.5,14.1,35.3,48.2,60.4,88.2,61.6v-72.6c-2.2,4.7-5.2,8.8-9,12.2h0Z"/>
        <path d="M121.5,164.3v28.9c19.3-4.7,36.3-15.2,49.2-29.4-2.8.3-5.8.5-9,.5h-40.3.1Z"/>
        <path d="M170.8,115.5c-2.7-1.2-6-1.8-10-1.8h-40.6v29.5h40.6c3.9,0,7.3-.6,10-1.9,2.7-1.2,4.7-2.9,6.1-5.1,1.3-2.2,2-4.8,2-7.8s-.7-5.6-2-7.8c-1.3-2.2-3.4-3.9-6.1-5.1Z"/>
        <path d="M21.4,102.2c0,4.9.9,9.2,2.8,12.7s4.7,6.1,8.6,7.9c3.8,1.8,8.6,2.7,14.4,2.7,8.6,0,15-2,19.3-6s6.4-9.7,6.4-17.2v-38.5H9.9v-8.5C3.5,68.1,0,82.7,0,98s0,1.5,0,2.2h21.4v1.9h0Z"/>
        <path class="cls-1" d="M95.2,196.1h26.3v-2.9c-7.5,1.9-15.4,2.8-23.5,2.8s-1.9,0-2.9,0h0Z"/>
        <path class="cls-1" d="M185.9,97c-6.5-3-14.5-4.4-24.1-4.4h-62.5v-50.7H17.8c-3,4.2-5.6,8.7-7.9,13.4v8.5h63.1v38.5c0,7.5-2.1,13.2-6.4,17.2-4.3,4-10.7,6-19.3,6s-10.5-.9-14.4-2.7c-3.8-1.8-6.7-4.4-8.6-7.9s-2.8-7.7-2.8-12.7v-1.9H0c.3,12.1,2.7,23.6,7,34.3,3.1,3,6.9,5.5,11.2,7.5,7.7,3.6,17.4,5.3,28.9,5.3,17.3,0,30.3-3.9,39-11.7,3.9-3.4,6.9-7.5,9-12.2v72.6h2.9c8.1,0,16-1,23.5-2.8v-28.9h40.3c3.2,0,6.1-.2,9-.5,14.5-16.1,23.8-37,25.2-60-2.7-2.7-6.1-5-10.1-6.8h0ZM176.8,136.2c-1.3,2.2-3.4,3.9-6.1,5.1-2.7,1.2-6,1.9-10,1.9h-40.6v-29.5h40.6c3.9,0,7.3.6,10,1.8,2.7,1.2,4.7,2.9,6.1,5.1,1.3,2.2,2,4.8,2,7.8s-.7,5.7-2,7.8Z"/>
      </g>
      <g>
        <path d="M237.5,100.6c-7.5,0-13.9-1.2-18.9-3.5s-8.9-5.6-11.3-10c-2.6-4.4-3.8-9.5-3.8-15.7v-2.6h7.4v2.4c0,4.8.9,9.1,2.9,12.4,2,3.5,4.8,6,8.9,7.8,3.9,1.8,8.9,2.7,14.8,2.7,8.9,0,15.5-2,20.1-5.9,4.4-3.9,6.6-9.7,6.6-16.9v-37.6h-50.4v-6.5h57.8v44.2c0,9.2-2.9,16.3-8.6,21.4s-14.2,7.7-25.5,7.7v-.2.3Z"/>
        <path d="M319.3,100.6c-6,0-11.3-1.2-15.7-3.6s-7.8-5.9-10.1-10.4-3.6-10-3.6-16.1v-22.9h6.6v21.7c0,5.4.9,10,2.9,13.9s4.8,6.8,8.4,8.7c3.8,2,8.1,3,13.3,3,7.7,0,13.9-2.3,18.1-6.8,4.4-4.5,6.5-10.9,6.5-18.9v-21.7h6.8v51.9h-6.9l1.5-17.2h-1.2c-.8,3.5-2.4,6.5-4.7,9.4-2.3,2.7-5.3,5-9.1,6.6s-8.1,2.4-13.1,2.4h.3Z"/>
        <path d="M371.2,99.4v-51.9h6.9l-1.5,17.2h1.2c.8-3.5,2.4-6.5,4.7-9.4,2.3-2.7,5.4-5,9.4-6.6s8.3-2.4,13.6-2.4,11.6,1.2,16.1,3.6,8,6,10.4,10.6c2.4,4.7,3.6,10.1,3.6,16.4v22.3h-6.8v-21c0-5.6-1.1-10.3-3-14.2s-4.8-6.9-8.7-8.9c-3.8-2.1-8.3-3.2-13.7-3.2-8,0-14.2,2.3-18.7,6.8s-6.8,11-6.8,19.5v21h-6.6v.2h-.1Z"/>
        <path d="M475.9,100.6c-8.3,0-14.5-1.4-18.3-4.2-3.9-2.7-5.9-6.6-5.9-11.5s2-8.4,5.9-11.3,10-4.2,18.3-4.2,12.7.8,17.5,2.3,9.4,3.5,13.6,6.2v-5.9c0-4.1-.9-7.5-2.7-10.6-1.8-3-4.5-5.3-8.3-6.9s-8.4-2.4-14-2.4-9.8.8-13.4,2.1-6.3,3.2-8.3,5.3-3,4.4-3.3,6.8h-6.6c.3-3.6,1.7-6.8,4.1-9.8s5.9-5.4,10.6-7.2,10.4-2.7,17.2-2.7,13,1.1,17.6,3.2,8.1,5,10.6,8.9c2.3,3.9,3.5,8.4,3.5,13.9v17c0,2,.5,3.3,1.4,4.2.9.9,2.1,1.4,3.9,1.4s2.3-.2,3.5-.5v5.4c-1.5.5-3.2.8-4.7.8s-3.8-.3-5.3-1.1-2.6-1.8-3.5-3.2c-.8-1.4-1.2-3-1.2-5v-1.2h-1.1c-.5,1.7-2.1,3.3-4.7,4.8-2.7,1.5-6.3,2.9-10.7,3.9-4.5,1.1-9.7,1.5-15.4,1.5h-.3ZM477.8,95.2c6.3,0,12.1-.8,16.7-2.3,4.8-1.5,8.9-3.6,12.2-6v-4.7c-4.1-2.3-8.4-4.2-13-5.6-4.5-1.4-10-2-16.1-2s-11.9.9-14.9,2.7c-3,1.8-4.5,4.4-4.5,7.5s1.5,5.7,4.4,7.5c3,1.8,8,2.7,14.9,2.7h.3v.2Z"/>
        <path d="M526.6,99.4v-5.7h47.1v5.7h-47.1ZM548.3,60.8c0-3-.6-5.1-2-6.3-1.2-1.4-3.3-2-6.3-2s-2.6,0-3.8.5c-1.1.3-2.4.6-3.8,1.2v-5.9c3-1.1,6-1.7,9.4-1.7s5.4.5,7.4,1.4,3.3,2.3,4.2,4.1,1.4,4.2,1.4,6.9v39.2h-6.5v-37.4h0ZM550.1,37.3c-1.5,0-2.9-.5-3.8-1.4-.9-.9-1.5-2-1.5-3.3s.5-2.4,1.5-3.3c.9-.9,2.3-1.4,3.8-1.4s2.7.5,3.8,1.4c.9.9,1.5,2,1.5,3.3s-.5,2.6-1.5,3.3c-.9.9-2.3,1.4-3.8,1.4Z"/>
        <path d="M610.3,100.6c-6.3,0-11.9-1.2-16.6-3.5s-8.1-5.6-10.7-9.7c-2.4-4.1-3.8-8.7-3.8-13.9s1.2-10,3.8-14c2.4-4.1,6-7.2,10.7-9.7,4.7-2.3,10.1-3.5,16.6-3.5s10,.8,13.9,2.3,7.1,3.5,9.5,5.9,4.2,5.3,5.3,8.4h1.1c-.5-3.6-.8-6.8-.9-9.4s-.3-5.4-.3-8.4v-18h6.6v72.3h-6.9l1.5-15.5h-1.1c-1.1,3.2-2.9,6-5.3,8.6-2.4,2.4-5.6,4.5-9.5,5.9-3.9,1.5-8.6,2.3-13.9,2.3v-.2h0ZM612.4,94.9c5.6,0,10.3-.9,14.3-2.9s6.9-4.5,9.1-7.7,3.2-6.8,3.2-10.9-1.1-7.7-3.2-10.9-5.1-5.7-9.1-7.7c-3.9-2-8.7-2.9-14.3-2.9s-10.3.9-14.2,2.9-6.9,4.5-9.1,7.7c-2.2,3.2-3.2,6.9-3.2,10.9s1.1,7.5,3.2,10.9c2.1,3.2,5.1,5.7,9.1,7.7,3.9,2,8.7,2.9,14.2,2.9Z"/>
      </g>
      <g>
        <path d="M203.9,165.8v-46.2h28.4c3.9,0,7.2.6,9.8,1.8,2.7,1.2,4.7,3,6,5.1,1.4,2.3,2,4.8,2,7.8s-.6,5.6-2,7.8c-1.4,2.3-3.3,3.9-6,5.1-2.7,1.2-5.9,1.8-9.8,1.8h-25.2v-4.2h25.2c2.9,0,5.3-.5,7.2-1.4,2-.9,3.5-2.1,4.4-3.6s1.5-3.5,1.5-5.6-.5-4.1-1.5-5.7c-.9-1.5-2.4-2.9-4.4-3.6s-4.4-1.4-7.2-1.4h-23.7v41.9h-4.7v.4Z"/>
        <path d="M273.6,166.5c-5.3,0-9.2-.9-11.8-2.7-2.4-1.8-3.8-4.2-3.8-7.2s1.2-5.4,3.8-7.2c2.4-1.8,6.3-2.7,11.8-2.7s8,.5,11.2,1.4c3,.9,6,2.3,8.7,3.9v-3.8c0-2.6-.6-4.8-1.8-6.8-1.2-2-2.9-3.3-5.3-4.4-2.4-1.1-5.4-1.5-8.9-1.5s-6.2.5-8.6,1.4c-2.3.9-4.1,2-5.3,3.3s-2,2.9-2.1,4.4h-4.2c.2-2.3,1.1-4.4,2.6-6.3s3.8-3.5,6.8-4.7,6.6-1.8,11-1.8,8.3.6,11.3,2,5.3,3.2,6.8,5.7c1.5,2.4,2.3,5.4,2.3,8.9v11c0,1.2.3,2.1.8,2.7s1.4.9,2.4.9,1.4,0,2.3-.3v3.5c-1.1.3-2,.5-3,.5s-2.4-.3-3.5-.8c-.9-.5-1.7-1.2-2.1-2s-.8-2-.8-3.2v-.8h-.6c-.3,1.1-1.4,2.1-3,3.2-1.7,1.1-4.1,1.8-6.9,2.6s-6.2,1.1-9.8,1.1l-.2-.2h0ZM274.8,163.2c4.1,0,7.7-.5,10.7-1.5s5.7-2.3,7.8-3.9v-3c-2.6-1.5-5.4-2.7-8.3-3.5-2.9-.9-6.3-1.4-10.3-1.4s-7.7.6-9.5,1.8c-2,1.2-2.9,2.7-2.9,4.8s.9,3.6,2.9,4.8,5.1,1.8,9.5,1.8h0Z"/>
        <path d="M310.1,165.8v-33.2h4.4l-.9,10h.8c.5-2,1.4-3.8,2.7-5.3,1.4-1.7,3.2-2.9,5.4-3.9,2.3-.9,4.8-1.4,7.8-1.4s6.9.6,9.5,2,4.5,3.2,5.9,5.6c1.4,2.4,2,5.3,2,8.6v.8h-4.2v-.5c0-2.6-.6-4.7-1.7-6.6-1.1-2-2.7-3.5-5-4.5s-4.8-1.5-7.8-1.5c-4.5,0-8.1,1.4-10.7,3.9-2.6,2.6-3.9,6.3-3.9,11.3v15.1h-4.2v-.3h0Z"/>
        <path d="M371,166.5c-5.3,0-9.2-.9-11.8-2.7-2.4-1.8-3.8-4.2-3.8-7.2s1.2-5.4,3.8-7.2c2.4-1.8,6.3-2.7,11.8-2.7s8,.5,11.2,1.4c3,.9,6,2.3,8.7,3.9v-3.8c0-2.6-.6-4.8-1.8-6.8-1.2-2-2.9-3.3-5.3-4.4-2.4-1.1-5.4-1.5-8.9-1.5s-6.2.5-8.6,1.4c-2.3.9-4.1,2-5.3,3.3s-2,2.9-2.1,4.4h-4.2c.2-2.3,1.1-4.4,2.6-6.3s3.8-3.5,6.8-4.7,6.6-1.8,11-1.8,8.3.6,11.3,2,5.3,3.2,6.8,5.7c1.5,2.4,2.3,5.4,2.3,8.9v11c0,1.2.3,2.1.8,2.7s1.4.9,2.4.9,1.4,0,2.3-.3v3.5c-1.1.3-2,.5-3,.5s-2.4-.3-3.5-.8c-.9-.5-1.7-1.2-2.1-2s-.8-2-.8-3.2v-.8h-.6c-.3,1.1-1.4,2.1-3,3.2-1.7,1.1-4.1,1.8-6.9,2.6s-6.2,1.1-9.8,1.1l-.2-.2h0ZM372.2,163.2c4.1,0,7.7-.5,10.7-1.5s5.7-2.3,7.8-3.9v-3c-2.6-1.5-5.4-2.7-8.3-3.5-2.9-.9-6.3-1.4-10.3-1.4s-7.7.6-9.5,1.8c-2,1.2-2.9,2.7-2.9,4.8s.9,3.6,2.9,4.8,5.1,1.8,9.5,1.8h0Z"/>
        <path d="M407.5,165.8v-33.2h4.4l-.9,8.6h.8c.8-2.7,2.4-5,4.7-6.6,2.3-1.8,5.3-2.6,9.1-2.6s4.8.5,6.8,1.4,3.5,2.1,4.7,3.6,2,3.3,2.4,5.3h.6c.8-3,2.3-5.6,4.7-7.4,2.4-1.8,5.6-2.9,9.4-2.9s5.6.6,7.8,1.8c2.3,1.2,3.9,3,5.3,5.4,1.2,2.4,1.8,5.3,1.8,8.6v18h-4.2v-17.2c0-2.7-.5-5-1.5-6.9s-2.4-3.5-4.2-4.5c-1.8-1.1-3.9-1.5-6.5-1.5s-6.6,1.2-8.9,3.5-3.3,5.6-3.3,9.7v17.2h-4.2v-17.2c0-2.7-.5-5-1.5-6.9s-2.4-3.5-4.2-4.5c-1.8-1.1-3.9-1.5-6.5-1.5-3.8,0-6.6,1.2-8.9,3.5s-3.3,5.6-3.3,9.7v17.2h-4.2l.2-.3-.4-.3Z"/>
        <path d="M503.3,166.5c-3.3,0-6.3-.5-8.7-1.4-2.6-.9-4.5-2.3-6-3.8s-2.7-3.5-3.3-5.4h-.8l.9,10h-4.4v-46.2h4.2v11.5c0,2,0,3.8-.2,5.4,0,1.7-.3,3.6-.6,6h.8c.8-2,1.8-3.8,3.3-5.4,1.5-1.5,3.6-2.9,6-3.8,2.6-.9,5.4-1.4,8.7-1.4s7.7.8,10.6,2.3,5.3,3.6,6.8,6.2c1.7,2.6,2.4,5.6,2.4,8.9s-.8,6.3-2.4,8.9-3.9,4.7-6.8,6.2c-3,1.5-6.5,2.3-10.6,2.3v-.3h.1ZM502,162.9c3.5,0,6.5-.6,9.1-1.8s4.5-2.9,5.7-5c1.4-2.1,2-4.4,2-6.9s-.6-5-2-6.9c-1.4-2.1-3.3-3.8-5.7-5-2.6-1.2-5.6-1.8-9.1-1.8s-6.5.6-9.1,1.8-4.5,2.9-5.7,5c-1.4,2.1-2,4.4-2,6.9s.6,4.8,2,6.9c1.4,2.1,3.3,3.8,5.7,5,2.6,1.2,5.6,1.8,9.1,1.8h0Z"/>
        <path d="M552.5,166.5c-4.5,0-8.4-.8-11.8-2.3-3.3-1.5-5.7-3.6-7.4-6.2-1.7-2.6-2.6-5.6-2.6-8.7s.9-6.3,2.6-8.9,4.1-4.7,7.4-6.2c3.3-1.5,7.2-2.3,11.8-2.3s8.4.8,11.8,2.3c3.3,1.5,5.7,3.6,7.4,6.2s2.6,5.6,2.6,8.9,0,1.2,0,1.8h-40v-3.3h37l-1.1,2.3v-.8c0-2.6-.8-5-2.1-7.1s-3.3-3.8-6-5-5.7-1.8-9.5-1.8-6.9.6-9.7,1.8-4.7,2.9-6,5c-1.4,2.1-2,4.5-2,7.1s.8,5,2.1,7.1,3.3,3.8,6,5,5.9,1.8,9.5,1.8,8.3-.8,10.9-2.3,4.4-3.3,5.6-5.3h4.4c-.6,1.8-1.8,3.5-3.5,5.3-1.7,1.7-3.9,3-6.8,4.2s-6.3,1.7-10.6,1.7v-.3h0Z"/>
        <path d="M583.9,165.8v-33.2h4.4l-.9,10h.8c.5-2,1.4-3.8,2.7-5.3,1.4-1.7,3.2-2.9,5.4-3.9,2.3-.9,4.8-1.4,7.8-1.4s6.9.6,9.5,2,4.5,3.2,5.9,5.6c1.4,2.4,2,5.3,2,8.6v.8h-4.2v-.5c0-2.6-.6-4.7-1.7-6.6-1.1-2-2.7-3.5-5-4.5s-4.8-1.5-7.8-1.5c-4.5,0-8.1,1.4-10.7,3.9-2.6,2.6-3.9,6.3-3.9,11.3v15.1h-4.2v-.3h0Z"/>
        <path d="M632.3,180.2c-.9,0-1.8,0-2.6-.2-.8,0-1.5-.3-2.4-.6v-3.6c1.5.6,3.2.9,4.5.9s3-.3,4.2-.8c1.2-.6,2.1-1.4,3-2.4.9-1.1,2-2.6,3-4.4l2.3-3.9-.6,2.1-19.2-34.4h5.1l14.5,26.7h0c.5.8.8,1.4.9,2.1.2.6.3,1.2.3,1.7h.8c0-1.1.5-2.3,1.2-3.8l14.6-26.7h5l-20.4,36.2c-1.5,2.9-3,5-4.4,6.6-1.4,1.5-2.7,2.7-4.4,3.5s-3.5,1.2-5.7,1.2l.2-.3h.1Z"/>
      </g>
    </g>
  </g>
</svg>