<svg width="990" height="695" viewBox="0 0 990 695" fill="none" xmlns="http://www.w3.org/2000/svg">
<path d="M692.302 90.3301C689.739 89.9152 685.018 89.9591 681.899 90.4571C674.802 91.6613 661.564 96.9491 654.012 101.634C650.851 103.569 648.12 105.139 647.892 105C647.74 104.907 647.629 103.378 647.81 101.714C648.087 97.4981 646.467 89.724 644.794 86.8243C643.949 85.4737 641.718 83.487 639.742 82.2814C636.473 80.2876 635.68 80.221 631.057 81.4728C624.843 83.1109 619.757 87.0032 614.984 93.8011C608.638 102.666 609.664 102.353 602.062 97.7158C592.56 91.9198 585.04 90.5691 579.181 93.6767C573.584 96.5263 572.062 101.757 574.598 109.568C575.435 111.958 577.332 115.516 578.967 117.453C582.114 121.356 597.31 133.549 605.427 138.709C622.193 149.353 684.023 185.293 687.3 186.248C692.283 187.826 702.685 185.819 708.426 182.222C713.275 179.229 718.263 172.249 718.586 167.958C719.245 157.815 712.457 150.647 696.039 144.391C691.973 142.85 688.548 141.283 688.413 140.992C688.4 140.671 690.649 138.18 693.481 135.418C703.855 125.251 709.094 113.414 707.211 104.018C705.637 96.1678 701.042 91.9032 692.302 90.3301ZM700.683 102.751C704.461 110.066 699.222 121.903 687.206 133.052C681.42 138.606 680.88 139.32 680.894 141.521C681.081 144.976 681.613 145.3 695.244 150.483C703.301 153.518 705.218 154.479 708.327 157.419C712.588 161.376 713.751 165.112 712.22 169.503C710.487 174.396 706.566 177.747 700.166 179.689C689.832 182.781 692.876 184.116 651.097 158.736C630.754 146.432 608.798 133.353 602.198 129.64C588.769 122.075 584.566 118.363 580.924 111.339C579.72 109.038 578.861 105.487 579.029 103.502C579.163 100.034 579.302 99.8054 581.801 98.6154C586.339 96.4767 591.431 97.7037 600.553 103.268C606.406 106.838 609.101 108.064 610.126 107.75C610.954 107.42 614.081 104.003 617.06 99.9738C625.917 88.3599 632.625 84.2037 637.718 87.3103C641.062 89.3505 642.81 98.455 641.39 106.254C640.51 111.459 640.578 112.544 642.174 113.518C643.771 114.492 645.379 113.907 653.175 109.162C664.762 102.136 668.379 100.48 678.085 97.7354C689.871 94.4852 697.252 96.0642 700.683 102.751Z" fill="url(#paint0_linear_249_579)"/>
<path d="M629.634 162.974C625.379 164.137 618.152 168.289 616.992 170.192C615.739 172.246 617.926 173.789 621.063 173.093C627.856 171.703 636.247 165.129 634.325 162.808C633.932 162.255 631.808 162.317 629.634 162.974Z" fill="url(#paint1_linear_249_579)"/>
<path d="M658.044 182.913C656.896 183.257 654.089 184.781 651.603 186.292C643.452 191.447 643.234 195.908 651.356 192.51C659.431 189.188 665.347 180.687 658.044 182.913Z" fill="url(#paint2_linear_249_579)"/>
<path d="M589.162 144.342C586.194 144.933 580.179 148.468 579.158 150.142C578.184 151.739 579.151 153.06 581.334 153.243C585.67 153.487 595.411 146.066 592.827 144.49C592.219 144.119 590.585 144.062 589.162 144.342Z" fill="url(#paint3_linear_249_579)"/>
<path d="M619.183 191.051C616.397 191.857 612.505 193.45 610.525 194.643C607.608 196.518 607.161 197.081 607.609 198.398C608.341 200.619 611.148 200.974 615.619 199.63C619.891 198.268 624.779 194.36 625.255 192.04C625.685 189.797 624.739 189.637 619.183 191.051Z" fill="url(#paint4_linear_249_579)"/>
<path d="M583.908 170.055C582.489 169.816 576.474 173.351 575.407 175.101C575.035 175.709 575.166 176.52 575.699 176.845C577.523 177.958 580.309 177.152 583.445 174.575C587.012 171.635 587.142 170.567 583.908 170.055Z" fill="url(#paint5_linear_249_579)"/>
<path d="M312.445 117.878C282.752 123.276 276.645 144.931 298.995 165.677C314.069 179.594 339.668 192.145 358.899 195.007C366.176 196.047 376.962 195.462 382.419 193.706C390.476 191.17 395.479 184.536 394.309 178.033C392.49 168.213 379.885 158.523 363.188 154.231C352.727 151.565 335.899 151.305 335.055 153.841C334.73 154.816 336.029 155.011 346.945 155.857C357.925 156.702 366.111 158.783 374.233 162.75C384.303 167.693 390.151 174.196 390.151 180.439C390.151 187.073 381.315 191.69 368.45 191.69C347.204 191.69 317.967 178.618 300.815 161.45C292.693 153.321 289.834 148.248 289.834 141.615C289.769 138.103 290.094 136.867 291.589 134.266C300.165 119.634 331.741 117.228 368.71 128.413C388.916 134.461 403.6 140.639 415.75 148.053C424.326 153.321 431.083 156.052 426.73 152.475C423.221 149.549 407.303 139.794 400.871 136.607C384.433 128.413 359.354 120.544 341.357 117.878C333.106 116.707 318.877 116.707 312.445 117.878Z" fill="url(#paint6_linear_249_579)"/>
<path d="M332.651 139.729C327.388 140.51 322.32 143.111 320.696 145.777C318.682 149.029 318.877 153.646 321.216 157.288C325.374 163.921 337.394 170.945 349.998 174.131C356.106 175.692 366.371 176.603 367.021 175.562C367.671 174.522 366.761 174.196 361.173 173.416C345.905 171.335 325.959 160.54 323.815 153.256C322.71 149.679 323.815 147.663 328.038 145.582C330.767 144.216 332.391 143.956 339.733 143.696C348.894 143.371 354.416 144.151 366.111 147.208C380.665 151.045 397.882 158.589 409.252 166.132C416.984 171.205 426.08 180.114 428.744 185.122C432.252 191.69 430.953 198.063 425.106 203.071C413.346 213.151 389.241 215.817 360.199 210.159C345.515 207.298 340.772 205.607 314.264 193.641C310.885 192.145 308.026 191.105 307.832 191.3C306.857 192.21 308.741 193.901 314.848 197.478C327.518 205.022 344.346 211.135 360.524 214.061C385.408 218.679 405.744 217.508 419.713 210.615C425.95 207.493 429.848 204.307 432.252 200.274C433.747 197.673 434.007 196.503 434.007 192.341C434.007 188.243 433.682 186.813 432.058 183.561C429.394 178.228 419.583 168.474 411.656 163.206C387.617 147.338 351.817 136.673 332.651 139.729Z" fill="url(#paint7_linear_249_579)"/>
<path d="M276.125 170.945C275.216 172.31 276.58 177.513 279.049 182.455C282.947 190.194 291.394 199.624 291.394 196.177C291.394 195.722 289.315 192.21 286.781 188.308C284.247 184.471 281.063 178.813 279.634 175.757C278.204 172.7 276.905 170.229 276.775 170.229C276.645 170.229 276.32 170.554 276.125 170.945Z" fill="url(#paint8_linear_249_579)"/>
<path d="M448.95 185.187C448.755 185.512 449.08 187.463 449.665 189.414C450.639 192.796 450.639 193.316 449.6 196.438C449.015 198.323 447.651 201.315 446.611 203.136C444.532 206.843 444.207 208.599 445.702 208.599C446.871 208.599 450.185 204.176 452.264 199.819C454.473 195.202 454.343 191.43 451.874 187.593C449.86 184.341 449.6 184.146 448.95 185.187Z" fill="url(#paint9_linear_249_579)"/>
<path d="M711.974 252.115C710.893 252.803 706.651 256.075 702.604 259.339L695.203 265.258L690.124 263.157C683.265 260.337 673.087 257.438 670.23 257.537C668.737 257.589 667.519 258.087 666.769 258.959C665.021 261.037 666.529 263.262 676.153 272.688C680.933 277.402 684.719 281.565 684.605 282.024C684.488 282.419 681.84 284.789 678.742 287.304C675.644 289.819 672.117 293.066 670.866 294.476C668.614 297.027 668.614 297.027 668.482 304.45C668.256 316.626 663.845 331.876 657.452 342.445C648.91 356.668 633.659 372.36 616.659 384.534C608.986 390.072 607.043 392.157 607.823 394.017C608.813 396.325 615.76 394.196 633.939 386.015C647.06 380.093 666.858 368.016 679.962 357.865C693.257 347.576 705.954 333.209 710.67 323.024C711.456 321.305 712.819 319.37 713.645 318.821C715.102 317.729 715.93 315.358 718.684 302.963L719.864 297.651L723.608 296.87C730.573 295.261 737.704 292.801 739.024 291.518C739.779 290.776 740.32 289.521 740.291 288.676C740.223 286.727 738.498 285.745 727.225 281.257C722.61 279.401 718.516 277.591 718.182 277.342C717.779 276.966 717.713 273.194 718.045 267.781C718.548 257.938 717.854 252.952 715.856 251.59C714.324 250.537 714.324 250.537 711.974 252.115ZM714.319 261.599C714.416 264.394 714.326 269.277 714.11 272.408L713.79 278.146L715.736 279.9C716.874 280.837 721.239 282.962 725.39 284.575C733.168 287.623 735.615 288.839 735.051 289.444C734.861 289.581 731.133 290.817 726.689 292.013C718.388 294.449 716.223 295.761 715.689 299.098C714.768 304.401 712.929 313.184 712.445 314.242C711.899 315.368 711.767 315.307 710.54 313.658C709.789 312.643 707.446 308.82 705.302 305.121C703.158 301.421 700.557 297.672 699.547 296.666C697.331 294.661 694.792 294.554 685.299 296.381C678.518 297.658 673.654 298.023 673.627 297.243C673.618 296.983 677.021 293.871 681.191 290.407C687.635 285.042 688.763 283.832 688.711 282.337C688.632 280.062 686.457 277.34 678.573 269.35C673.047 263.751 671.687 262.041 672.726 262.005C672.921 261.998 677.984 263.644 683.903 265.586L694.692 269.245L699.015 266.426C701.367 264.913 705.488 261.906 708.018 259.866C710.61 257.759 713.088 256.111 713.417 256.23C713.876 256.344 714.213 258.544 714.319 261.599ZM692.795 306.272C685.231 331.783 668.528 354.358 645.295 370.458C639.519 374.499 629.696 379.916 629.667 379.071C629.662 378.941 632.937 375.899 636.905 372.247C646.107 363.923 654.988 353.853 659.795 346.268C667.252 334.49 671.772 320.538 671.88 308.691L672.028 301.723L676.96 301.487C679.688 301.392 684.544 300.832 687.71 300.267C690.941 299.699 693.793 299.469 694.062 299.72C694.393 299.904 693.783 302.919 692.795 306.272ZM701.187 306.435C702.018 307.903 704.079 311.085 705.723 313.5C707.433 315.913 708.808 318.078 708.815 318.273C708.842 319.053 703.596 327.109 699.125 333.121C687.635 348.553 667.961 364.204 643.579 377.22C631.195 383.768 626.709 385.616 635.245 380.569C650.089 371.853 659.461 364.695 669.446 354.586C682.885 340.974 692.789 322.93 696.348 305.627C697.289 300.909 697.287 300.844 698.507 302.299C699.119 303.058 700.353 304.902 701.187 306.435Z" fill="url(#paint10_linear_249_579)"/>
<path d="M651.97 280.167C651.849 280.431 651.598 286.296 651.446 293.134C651.075 308.634 649.746 319.027 646.459 331.049C643.748 340.97 643.496 343.061 644.86 343.013C646.743 342.948 649.488 337.777 652.242 329.091C654.472 322.181 655.379 316.488 655.689 306.717C656.192 293.164 653.932 276.78 651.97 280.167Z" fill="url(#paint11_linear_249_579)"/>
<path d="M732.948 305.59C732.458 306.453 731.073 309.625 729.813 312.662C725.198 323.885 717.359 335.871 706.358 348.552C700.355 355.398 699.319 357.386 701.657 357.305C703.28 357.249 711.296 350.332 715.857 345.033C719.982 340.269 726.949 329.355 729.788 323.14C733.535 315.005 736.21 304.045 734.391 304.109C734.067 304.12 733.44 304.792 732.948 305.59Z" fill="url(#paint12_linear_249_579)"/>
<path d="M629.632 357.533C626.881 360.688 626.425 362.525 628.308 362.46C629.542 362.417 634.092 356.793 634.042 355.363C633.984 353.673 632.193 354.516 629.632 357.533Z" fill="url(#paint13_linear_249_579)"/>
<path d="M677.516 367.906C674.324 369.578 672.294 371.016 672.316 371.665C672.364 373.03 673.658 372.855 678.59 370.731C683.264 368.682 685.541 366.846 684.853 365.763C684.1 364.683 683.068 364.914 677.516 367.906Z" fill="url(#paint14_linear_249_579)"/>
<path d="M181.707 343.04C178.979 348.041 179.404 353.981 183.02 360.911C190.654 375.444 213.647 386.637 235.7 386.495C241.903 386.445 241.683 386.362 241.373 388.827C240.974 391.835 243.101 393.35 247.051 392.836C249.634 392.423 250.163 392.603 252.406 394.836C255.77 398.185 258.134 403.372 259.203 409.65C259.972 414.622 259.931 416.012 258.765 431.099C258.021 440.2 258.4 443.29 260.687 447.813C264.258 455.016 270.205 457.951 280.161 457.448C282.284 457.285 289.171 456.183 295.491 454.848C310.479 451.773 312.383 451.527 317.256 451.631C322.326 451.674 326.858 453.864 331.101 458.103C335.586 462.568 338.206 467.332 341.209 476.304C343.243 482.369 343.965 483.932 344.872 484.081C346.376 484.282 346.372 482.605 344.865 476.161C342.929 467.784 341.121 464.039 336.244 457.693C332.521 452.84 331.271 451.656 328.327 450.007C320.911 445.805 315.894 445.724 297.825 449.41C282.21 452.615 277.414 453.176 272.636 452.203C267.821 451.177 265.23 448.794 263.387 443.553C262.16 439.95 262.146 434.917 263.4 421.847C264.457 410.842 262.178 401.429 256.948 395.258C255.295 393.402 253.439 391.373 252.863 390.905C251.954 390.197 251.938 389.728 252.804 388.706C254.536 386.662 254.732 384.039 253.253 381.979C252.001 380.236 251.964 380.183 255.658 374.968C269.022 355.927 274.381 332.866 268.286 320.59C262.952 309.929 252.407 308.053 241.769 315.851C236.001 320.072 232.036 325.801 228.293 335.293C226.568 339.574 224.856 343.205 224.425 343.273C223.98 343.433 220.818 342.26 217.301 340.703C201.566 333.826 186.217 334.839 181.707 343.04ZM194.032 341.157C199.915 340.216 205.251 341.188 214.192 344.616C218.836 346.406 223.381 347.946 224.355 347.967C227.393 348.187 229.306 346.173 231.128 341.023C233.287 335.23 236.984 328.013 239.385 325.008C242.171 321.647 247.788 317.774 251.133 316.973C259.967 314.795 265.463 321.336 265.506 333.874C265.553 344.968 259.528 362.423 251.464 374.697C249.734 377.3 247.732 379.859 247.046 380.351C245.304 381.602 232.936 381.754 225.665 380.65C214.856 378.964 204.501 374.79 196.158 368.851C191.942 365.874 186.556 358.372 185.41 353.991C183.615 347.034 186.767 342.29 194.032 341.157Z" fill="url(#paint15_linear_249_579)"/>
<path d="M737.058 615.255C739.355 623.794 743.825 631.081 751.326 638.199C758.072 644.6 762.089 646.98 770.528 649.614C775.351 651.145 777.933 651.446 785.469 651.252C794.107 651.03 794.753 651.106 797.7 653.007C809.073 660.485 829.295 660.149 849.545 652.225C867.837 645.042 892.645 628.725 905.712 615.239C910.187 610.618 911.163 609.306 910.955 608.392C910.496 606.702 909.547 607.324 902.136 613.906C884.893 629.43 864.865 642.222 847.388 648.924C834.009 654.142 820.355 655.965 810.049 653.977C805.934 653.117 799.291 650.575 799.224 649.795C799.217 649.52 801.159 648.228 803.514 646.88C808.54 643.946 810.823 641.635 812.921 637.534C815.106 633.248 814.809 629.026 812.056 625.786C809.211 622.549 807.58 621.717 803.944 621.581C799.801 621.412 796.127 623.299 792.83 627.246C788.464 632.508 787.513 638.234 790.007 643.825C790.692 645.371 791.009 646.926 790.651 647.303C789.757 648.246 779.639 648.138 774.828 647.066C760.816 644.07 747.732 632.728 740.989 617.82C739.619 614.729 738.172 612.192 737.849 612.154C736.647 611.909 736.441 612.788 737.058 615.255ZM798.875 626.355C801.638 624.767 806.607 624.915 808.494 626.705C812.174 630.197 811.571 635.178 806.694 640.223C802.668 644.465 796.756 646.916 794.87 645.125C792.511 642.887 791.641 637.852 792.872 634.004C794.195 630.154 795.618 628.37 798.875 626.355Z" fill="url(#paint16_linear_249_579)"/>
<path d="M832.215 642.05C833.442 643.214 840.975 642.928 846.961 641.533C854.865 639.628 860.894 636.393 869.532 629.274C873.492 626.045 874.824 624.264 873.881 623.369C873.126 622.652 871.037 623.626 865.025 627.505C854.31 634.355 845.81 638.022 837.154 639.302C832.161 640.028 830.894 640.797 832.215 642.05Z" fill="url(#paint17_linear_249_579)"/>
<path d="M921.316 558.928C921.486 560.165 923.564 563.928 927.694 570.535L930.578 575.242L926.303 585.605C921.378 597.503 920.96 599.077 922.234 600.285C923.743 601.718 926.471 600.544 933.777 595.207C937.611 592.395 941.042 590.008 941.499 589.904C942.457 589.65 946.373 593.365 952.398 600.337C958.043 606.859 958.741 607.163 961.559 604.194C962.543 603.157 967.638 594.198 972.8 584.318C978.054 574.435 983.355 564.597 984.675 562.356C987.491 557.594 988.068 555.096 986.663 554.121C986.054 553.723 982.008 553.735 977.513 554.126C973.017 554.518 962.956 554.823 955.137 554.748C931.269 554.58 929.339 554.63 926.451 554.934C923.562 555.238 921.13 557.14 921.316 558.928ZM938.316 558.491C944.526 558.561 953.631 558.603 958.504 558.569C963.377 558.536 967.656 558.656 967.981 558.785C968.585 559 965.311 560.371 945.289 568.243C936.461 571.688 933.587 572.544 933.155 571.865C928.342 563.805 926.064 559.404 926.511 558.932C926.78 558.65 932.063 558.468 938.316 558.491ZM956.583 567.585C974.162 561.247 977.083 560.436 974.159 562.857C964.35 570.925 947.241 582.814 941.023 585.87C938.8 586.985 935.315 589.052 933.24 590.577C931.163 592.009 929.129 593.303 928.716 593.36C928.304 593.416 928.834 590.874 929.948 587.811C930.97 584.75 932.201 580.902 932.619 579.328L933.417 576.503L936.596 575.041C938.415 574.259 947.382 570.856 956.583 567.585ZM951.18 583.954C955.204 581.414 975.372 566.963 976.624 565.644C977.834 564.463 976.492 567.578 973.035 574.15C971.019 577.88 967.268 585.517 964.658 591.102C962.093 596.639 959.737 601.39 959.469 601.673C958.977 602.191 957.37 600.577 948.79 590.912C947.179 589.115 946.077 587.442 946.345 587.159C946.569 586.923 948.782 585.441 951.18 583.954Z" fill="url(#paint18_linear_249_579)"/>
<path d="M294.084 645.02C293.244 645.372 289.788 648.23 286.338 651.437C282.887 654.645 279.181 657.748 278.067 658.285L276.018 659.285L271.296 648.02C266.624 636.875 266.549 636.695 264.632 636.16C260.689 634.995 257.716 637.157 247.254 648.869C243.54 652.962 240.259 656.239 240.004 656.135C239.749 656.031 239.579 647.718 239.696 637.736C239.788 627.694 239.752 618.691 239.59 617.632C239.013 614.07 235.103 611.975 231.744 613.383C229.405 614.363 226.076 618.365 214.67 633.714C208.323 642.292 202.22 650.275 201.041 651.332C196.917 655.456 196.452 652.833 198.405 634.614C200.771 611.994 200.774 605.441 198.301 607.112C197.142 607.88 196.413 611.355 194.219 626.646C190.998 648.568 191.522 656.379 196.318 658.737C199.957 660.522 204.047 656.483 217.958 637.69C232.069 618.53 233.327 617.158 234.206 619.255C234.457 619.854 234.519 626.732 234.343 634.555C233.903 656.72 234.336 661.117 237.25 662.855C239.519 664.229 242.241 662.313 249.834 653.846C259.149 643.601 261.635 641.291 262.742 641.743C263.337 641.987 264.467 644.683 266.273 650.337C270.644 663.792 273.115 666.49 278.932 664.052C282.831 662.418 285.353 660.022 291.281 652.465C296.157 646.264 297.023 643.788 294.084 645.02Z" fill="url(#paint19_linear_249_579)"/>
<path d="M761.185 306.543C759.713 312.932 761.68 324.075 765.002 328.291C769.709 334.322 770.147 334.603 773.421 335.16C779.806 336.168 787.262 332.616 791.825 326.589C795.171 322.097 795.978 317.828 793.974 314.69C793.25 313.53 792.326 312.32 791.888 312.039C790.211 311.04 784.941 310.824 780.86 311.525L776.564 312.319L774.749 307.681C773.331 303.991 772.477 302.672 770.781 301.583C767.934 299.757 766.274 299.695 764.229 301.317C762.06 303.012 761.939 303.321 761.185 306.543ZM768.028 305.993C768.63 306.379 769.641 308.417 770.237 310.498C772.348 317.565 773.134 318.147 780.054 316.874C788.142 315.348 790.354 315.995 789.589 319.596C788.627 324.228 782.882 328.724 776.056 330.211L771.35 331.283L769.632 329.023C767.234 326.017 766.014 322.379 765.617 317.338C764.931 309.255 765.948 304.658 768.028 305.993Z" fill="url(#paint20_linear_249_579)"/>
<path d="M706.226 394.484C703.405 403.095 707.023 412.75 715.014 417.878L718.9 420.371L712.887 429.019C702.481 444.034 690.117 456.558 676.914 465.455C672.78 468.284 669.381 470.812 669.44 471.081C669.691 472.014 673.225 470.962 677.386 468.692C691.588 461.13 708.111 445.254 719.207 428.442L724.334 420.693L727.876 420.11C740.335 417.914 750.586 406.273 755.942 388.172C757.964 381.286 759.897 371.41 761.445 360.207C762.606 351.533 762.63 348.847 761.645 348.215C760.714 347.618 759.509 351.785 757.239 363.992C751.752 392.894 745.765 405.959 734.808 412.438C731.865 414.255 727.347 415.756 726.526 415.229C726.307 415.089 726.4 414.222 726.743 413.206C727.105 412.281 727.674 408.864 728.069 405.72C728.882 399.757 728.187 394.216 726.139 390.664C724.538 387.861 720.433 385.227 717.546 385.15C712.944 384.976 708.039 389.008 706.226 394.484ZM715.753 390.715C717.65 389.926 720.109 391.272 721.69 393.985C723.942 397.822 723.715 407.327 721.266 413.552C720.678 414.95 720.339 415.119 718.924 414.674C714.551 413.18 710.495 406.255 710.534 400.413C710.498 396.376 712.941 391.845 715.753 390.715Z" fill="url(#paint21_linear_249_579)"/>
<path d="M295.75 235.568C296.171 236.621 297.398 240.839 298.412 244.957C301.274 256.55 305.653 264.235 309.956 265.296C311.67 265.761 312.303 265.6 314.152 264.336C316.303 262.896 319.067 258.538 319.471 255.98C319.632 255.299 320.059 254.643 320.445 254.585C321.484 254.495 331.634 261.64 335.153 264.921C337.977 267.519 340.487 271.083 340.748 272.818C340.989 274.424 337.765 278.786 333.708 282.419C324.836 290.324 321.542 295.09 321.46 300.228C321.427 308.314 332.426 314.543 355.657 319.458C367.954 322.075 370.575 323.323 369.049 325.853C368.686 326.499 365.513 329.013 361.999 331.447C351.1 339 348.021 343.012 348.862 348.601C349.713 354.255 357.172 360.557 366.437 363.565C372.161 365.332 378.181 366.003 379.055 364.82C379.875 363.711 378.904 362.938 376.077 362.509C367.513 361.104 356.617 355.122 354.506 350.709C352.46 346.286 353.106 345.335 364.589 337.299C372.623 331.688 374.89 329.705 375.786 327.796C378.73 321.571 374.625 317.458 362.807 314.965C346.76 311.467 340.798 309.867 336.212 307.798C331.275 305.584 328.204 303.089 327.894 301.033C327.517 298.528 330.195 294.905 337.257 288.521C346.22 280.339 347.737 277.745 346.876 272.027C346.441 269.136 345.775 267.331 344.205 265.202C341.715 261.766 333.397 255.002 328.329 252.348L324.682 250.4L328.505 248.708C333.015 246.78 334.748 244.746 335.657 240.733C338.123 229.586 324.358 222.459 305.837 225.246C298.506 226.349 295.499 227.787 294.922 230.502C294.44 232.545 294.591 233.114 295.75 235.568ZM305.324 230.579C321.154 228.263 333.777 233.919 329.158 241.25C327.876 243.217 327.692 243.311 321.207 244.352C317.551 244.968 314.217 245.535 313.776 245.667C312.702 245.96 313.121 247.869 314.613 249.484C315.697 250.569 315.858 251.202 315.525 253.354C315.23 255.764 312.504 260.379 311.347 260.553C310.639 260.66 307.583 256.52 306.376 253.745C305.778 252.39 304.204 247.173 302.916 242.111C301.573 237.122 300.347 232.905 300.199 232.796C299.163 232.032 301.015 231.227 305.324 230.579Z" fill="url(#paint22_linear_249_579)"/>
<path d="M789.593 493.369C787.979 493.343 785.363 494.17 782.566 495.701C780.166 496.975 778.028 498.045 777.894 498.1C777.759 498.156 776.917 495.957 776.043 493.299C774.289 487.893 772.236 485.502 768.627 484.601C766.002 483.955 761.695 485.637 759.56 488.09C754.741 493.724 755.452 506.069 761.183 515.714C765.03 522.08 765.096 521.707 756.453 532.031L749.042 540.841L748.914 534.953C748.685 524.924 743.241 514.753 738.086 514.835C736.062 514.884 734.201 516.627 733.723 519.056C733.13 521.816 733.701 528.779 734.751 531.332C735.815 534.069 739.956 540.691 742.42 543.699L744.075 545.657L740.658 548.89C732.871 556.252 717.219 565.82 702.021 572.593C694.146 575.998 692.821 576.828 693.703 577.595C695.614 579.259 713.332 572.265 725.729 564.951C733.613 560.347 743.223 553.365 745.614 550.618C747.45 548.509 748.973 548.541 753.41 550.766C761.802 554.88 773.584 554.704 780.374 550.269C784.258 547.786 784.523 542.93 780.802 541.07C777.074 539.118 768.312 538.992 758.801 540.714L755.525 541.311L758.678 537.59C760.38 535.536 763.258 531.834 765.069 529.358C768.264 524.896 768.398 524.841 772.272 523.557C778.401 521.563 783.341 518.362 788.332 513.223C793.835 507.495 795.498 504.2 795.268 499.516C795.07 495.291 793.329 493.431 789.593 493.369ZM791.362 500.341C791.438 504.114 786.699 510.25 780.545 514.549C774.781 518.498 769.49 520.618 768.796 519.238C768.526 518.658 767.268 516.442 766.059 514.268C762.666 508.469 761.571 505.274 761.181 500.279C760.76 494.825 762.03 491.189 765.017 489.737C769.201 487.602 771.746 491.111 772.186 499.512C772.668 507.864 774.29 508.672 779.164 503.172C781.043 501.014 785.061 498.476 787.866 497.728C789.852 497.129 791.352 498.176 791.362 500.341ZM777.226 547.355C774.985 548.94 763.417 549.561 758.866 548.358C756.755 547.814 755.054 547.195 755.035 546.92C754.928 545.361 769.672 543.366 775.256 544.175C779.073 544.738 779.643 545.666 777.226 547.355ZM742.824 526.116C743.647 528.04 744.443 531.578 744.601 533.871L744.934 538.041L743.342 537C740.103 534.783 737.206 526.83 738.096 522.345L738.537 520.056L739.909 521.251C740.694 521.933 741.994 524.1 742.824 526.116Z" fill="url(#paint23_linear_249_579)"/>
<path d="M819.146 407.28C818.236 407.995 816.482 410.271 815.312 412.287L813.168 415.994L806.151 416.514C797.965 417.164 796.276 417.685 795.301 419.831C794.132 422.367 795.041 424.123 799.849 429C802.383 431.472 804.462 433.943 804.462 434.398C804.462 434.853 803.683 437.845 802.773 440.966C801.798 444.153 801.214 447.275 801.474 447.86C802.058 449.486 804.462 448.835 810.635 445.324C813.493 443.698 816.157 442.332 816.482 442.332C816.872 442.332 818.886 443.242 821.03 444.283C825.578 446.494 827.787 446.689 829.866 444.998C831.166 443.958 831.426 443.047 831.62 438.885L831.88 433.943L835.909 431.407C841.106 427.96 843.315 425.944 843.835 423.798C844.615 420.546 840.586 418.335 833.894 418.27C829.931 418.27 827.982 417.295 827.462 415.213C826.748 412.287 824.863 408.19 823.629 407.019C822.2 405.589 821.225 405.654 819.146 407.28ZM821.355 416.059C821.355 416.579 820.9 416.969 820.38 416.969C819.276 416.969 819.211 416.839 819.796 415.409C820.25 414.238 821.355 414.628 821.355 416.059ZM809.66 423.147C809.66 423.993 808.101 427.375 807.711 427.375C806.931 427.375 803.163 424.123 803.163 423.473C803.163 423.147 803.813 422.822 804.657 422.692C806.022 422.497 809.66 422.822 809.66 423.147ZM821.55 423.408C823.239 424.058 823.564 424.773 824.279 428.675C824.668 430.886 824.603 431.016 821.16 432.902L817.587 434.788L814.988 433.032L812.324 431.277L813.298 428.48C815.053 423.408 817.522 421.912 821.55 423.408ZM834.609 425.033C834.219 426.074 831.231 427.505 830.451 427.049C830.191 426.919 829.801 426.139 829.606 425.424C829.281 424.253 829.606 424.123 832.14 424.123C834.219 424.123 834.869 424.318 834.609 425.033ZM810.31 438.04C810.31 438.235 810.05 438.56 809.66 438.755C809.335 438.95 809.01 438.82 809.01 438.495C809.01 438.105 809.335 437.78 809.66 437.78C810.05 437.78 810.31 437.91 810.31 438.04Z" fill="url(#paint24_linear_249_579)"/>
<path d="M117.87 566.616C117.832 567.772 118.444 570.58 119.234 572.773L120.691 576.8L116.572 582.504C111.8 589.188 111.111 590.815 112.126 592.943C113.314 595.47 115.244 595.905 122.071 595.365C125.593 595.016 128.823 595.016 129.171 595.309C129.52 595.602 131.307 598.124 133.11 600.83C134.922 603.627 136.934 606.084 137.549 606.262C139.17 606.861 140.22 604.602 141.505 597.618C142.101 594.384 142.771 591.466 142.98 591.218C143.231 590.919 145.224 589.964 147.401 588.993C152.02 586.936 153.592 585.371 153.636 582.691C153.676 581.027 153.147 580.242 150.087 577.414L146.472 574.034L147.124 569.318C147.832 563.122 147.711 560.134 146.403 558.354C144.417 555.665 140.132 557.324 135.774 562.404C133.223 565.437 131.222 566.3 129.295 565.359C126.595 564.022 122.247 562.826 120.556 563.018C118.542 563.19 117.964 563.978 117.87 566.616ZM126.01 570.577C126.409 570.911 126.414 571.511 126.08 571.908C125.369 572.754 125.228 572.72 124.509 571.351C123.906 570.25 124.916 569.656 126.01 570.577ZM123.907 584.089C124.554 584.633 126.138 588.004 125.887 588.302C125.386 588.899 120.471 589.689 119.974 589.271C119.725 589.061 119.894 588.355 120.338 587.625C121.067 586.455 123.658 583.88 123.907 584.089ZM131.76 575.158C133.345 574.284 134.101 574.495 137.547 576.46C139.49 577.585 139.548 577.719 138.775 581.568L137.918 585.516L134.901 586.375L131.843 587.283L130.33 584.738C127.577 580.13 128.022 577.278 131.76 575.158ZM141.41 566.21C141.956 567.178 141.127 570.386 140.276 570.69C140.01 570.805 139.161 570.601 138.488 570.29C137.384 569.785 137.493 569.453 139.124 567.514C140.463 565.923 141.03 565.551 141.41 566.21ZM135.722 593.178C135.872 593.304 135.953 593.712 135.851 594.136C135.792 594.51 135.483 594.675 135.234 594.466C134.936 594.215 134.896 593.757 135.105 593.508C135.356 593.21 135.623 593.095 135.722 593.178Z" fill="url(#paint25_linear_249_579)"/>
<path d="M203.466 242.791C203.427 243.948 204.04 246.755 204.83 248.948L206.287 252.975L202.168 258.68C197.396 265.363 196.707 266.991 197.722 269.118C198.91 271.646 200.839 272.08 207.667 271.54C211.189 271.192 214.419 271.192 214.767 271.485C215.115 271.778 216.903 274.3 218.706 277.005C220.517 279.802 222.53 282.259 223.145 282.437C224.766 283.036 225.815 280.778 227.101 273.794C227.697 270.559 228.367 267.642 228.576 267.393C228.827 267.095 230.82 266.14 232.996 265.169C237.616 263.111 239.187 261.546 239.232 258.867C239.272 257.203 238.742 256.418 235.683 253.589L232.068 250.209L232.72 245.494C233.428 239.297 233.307 236.309 231.999 234.53C230.013 231.84 225.727 233.5 221.37 238.579C218.819 241.612 216.818 242.476 214.89 241.534C212.191 240.197 207.843 239.002 206.152 239.193C204.137 239.366 203.56 240.154 203.466 242.791ZM211.606 246.752C212.004 247.087 212.01 247.686 211.676 248.084C210.965 248.929 210.823 248.895 210.105 247.527C209.502 246.425 210.511 245.831 211.606 246.752ZM209.503 260.265C210.15 260.809 211.734 264.179 211.483 264.477C210.981 265.074 206.067 265.865 205.569 265.446C205.321 265.237 205.49 264.53 205.934 263.8C206.663 262.631 209.254 260.055 209.503 260.265ZM217.355 251.333C218.94 250.459 219.697 250.671 223.143 252.636C225.086 253.761 225.144 253.894 224.371 257.743L223.514 261.692L220.497 262.551L217.439 263.459L215.926 260.913C213.173 256.305 213.618 253.453 217.355 251.333ZM227.006 242.386C227.551 243.354 226.722 246.562 225.872 246.866C225.605 246.981 224.757 246.777 224.084 246.465C222.979 245.961 223.089 245.628 224.72 243.689C226.058 242.098 226.626 241.726 227.006 242.386ZM221.318 269.354C221.467 269.479 221.549 269.888 221.447 270.312C221.387 270.686 221.079 270.851 220.83 270.641C220.531 270.39 220.492 269.932 220.701 269.684C220.952 269.385 221.218 269.27 221.318 269.354Z" fill="url(#paint26_linear_249_579)"/>
<path d="M66.0981 610.97C64.7371 611.089 62.4047 611.957 60.8938 612.852C58.5857 614.215 57.9189 615.077 56.4002 618.606C54.8659 621.991 54.6567 623.3 54.8715 626.641L55.187 630.643L50.2232 631.505C43.8914 632.691 35.9292 632.855 27.774 632.046C22.4869 631.539 19.8765 630.917 13.0933 628.467C8.58622 626.793 4.26889 624.981 3.48413 624.481C2.72202 623.921 1.60306 623.575 1.0026 623.698C0.00702697 623.953 -0.0382591 624.075 0.549735 624.918C2.23719 627.279 6.03058 629.381 13.4838 632.08C20.1226 634.546 22.5276 635.162 28.6744 635.78C36.8678 636.673 44.6473 636.44 52.0513 635.167C57.1369 634.35 57.1369 634.35 58.1684 636.051C59.8801 638.907 65.3797 644.626 69.3886 647.642C76.66 653.256 84.609 656.486 100.698 660.38L103.879 661.146L104.529 664.995C106.315 675.301 117.223 686.984 129.222 691.44C137.81 694.63 150.194 695.622 162.89 694.094C169.991 693.263 174.513 692.098 174.921 691.001C175.283 690.025 173.868 689.916 164.827 690.374C148.599 691.145 141.326 690.386 132.19 686.993C121.958 683.192 114.929 677.113 111.064 668.671C107.85 661.65 108.047 661.306 114.998 661.252C132.026 661.125 145.198 652.905 143.042 643.78C141.68 637.932 136.021 635.067 127.3 635.782C121.384 636.221 114.745 639.167 110.665 643.062C108.328 645.247 107.155 647.1 105.439 650.973L103.172 655.958L98.7813 655.09C96.3919 654.619 91.2844 653.069 87.3864 651.621C76.6669 647.639 69.0699 642.528 64.07 636.023L61.8485 633.048L65.8432 631.063C70.4228 628.809 74.7767 624.738 75.9089 621.69C76.9052 619.007 76.1562 615.052 74.3798 613.491C72.405 611.717 68.8428 610.671 66.0981 610.97ZM72.2341 618.521C72.235 621.504 68.5651 625.414 63.8254 627.538C60.6123 628.912 60.0485 628.563 59.6284 625.216C59.1769 621.58 61.606 617.279 64.7739 616.028C68.2533 614.684 72.1966 616.01 72.2341 618.521ZM138.068 643.736C138.627 644.846 138.889 646.192 138.685 646.741C137.349 650.337 129.757 654.732 123.098 655.866C119.457 656.526 110.688 656.807 109.47 656.355C109.105 656.219 109.45 654.543 110.175 652.592C112.597 646.069 119.733 641.227 128.149 640.399C133.677 639.885 136.828 640.917 138.068 643.736Z" fill="url(#paint27_linear_249_579)"/>
<path d="M948.068 338.051C937.882 333.983 922.773 335.484 911.664 341.647C907.747 343.868 906.835 343.972 903.188 342.191C898.463 339.934 888.318 338.208 884.08 339.029C880.132 339.767 877.893 344.019 879.499 347.719C880.846 350.786 887.902 358.734 893.197 363.261C895.549 365.177 896.471 367.032 896.771 371.106C899.401 398.451 923.793 416.268 949.212 409.382C957.523 407.159 957.668 407.117 965.927 410.482C979.542 415.844 988.423 414.793 989.014 407.795C989.346 403.462 984.653 397.193 978.176 393.474C973.192 390.585 972.83 390.139 973.607 387.641C978.188 372.358 972.843 354.738 960.865 345.767C958.834 344.151 956.337 342.276 955.363 341.613C954.44 340.857 951.166 339.283 948.068 338.051ZM960.968 353.273C965.661 358.443 969.795 370.994 969.276 378.521C968.986 381.9 967.846 386.151 966.498 388.577C963.7 393.617 958.995 398.575 956.84 398.721C954.736 398.774 937.142 388.272 922.397 378.131C901.818 363.775 901.994 364.117 906.71 355.624C913.136 344.052 926.68 337.897 938.917 340.907C946.244 342.655 956.637 348.548 960.968 353.273ZM901.633 353.781C898.731 359.008 898.337 359.277 896.472 358.242C893.954 356.844 887.737 350.461 885.675 347.363C884.96 346.233 884.826 344.938 885.509 344.585C887.468 343.475 898.587 344.764 901.758 346.525L904.742 348.182L901.633 353.781ZM980.994 403.342C982.445 405.124 983.128 406.969 982.579 407.519C980.838 409.116 975.284 408.352 969.056 405.504L963.243 403.009L965.306 400.614C970.073 395.324 969.928 395.366 974.311 397.799C976.642 399.094 979.637 401.611 980.994 403.342ZM929.401 389.468C939.939 396.418 948.705 402.385 948.829 402.82C949.254 404.033 942.487 404.793 935.773 404.361C926.395 403.672 916.095 397.831 910.23 389.935C906.355 384.609 902.304 374.545 903.341 372.678C903.6 372.212 905.237 372.999 907.04 374.366C908.75 375.682 918.863 382.518 929.401 389.468Z" fill="url(#paint28_linear_249_579)"/>
<path d="M140.497 406.827C137.768 407.998 134.455 411.965 134 414.631C132.7 421.264 139.587 428.158 149.138 429.979C153.751 430.824 156.805 430.174 159.404 427.703C161.288 425.882 161.613 425.166 161.613 422.565C161.613 416.842 157.65 412.485 151.932 411.9C145.435 411.314 142.706 414.826 145.435 420.419C147.839 425.361 150.633 425.231 149.268 420.289C148.878 418.793 148.748 417.297 148.943 416.972C150.113 415.086 155.96 417.688 157.065 420.614C157.974 422.89 157.909 423.28 156.415 424.776C152.582 428.613 139.717 423.801 137.963 417.818C137.313 415.737 139.133 411.965 141.602 410.469C143.356 409.363 144.72 409.168 149.463 409.233C152.582 409.298 155.311 409.168 155.505 408.973C157.78 406.697 144.915 404.876 140.497 406.827Z" fill="url(#paint29_linear_249_579)"/>
<path d="M743.497 437.827C740.768 438.998 737.455 442.965 737 445.631C735.7 452.264 742.587 459.158 752.138 460.979C756.751 461.824 759.805 461.174 762.404 458.703C764.288 456.882 764.613 456.166 764.613 453.565C764.613 447.842 760.65 443.485 754.932 442.9C748.435 442.314 745.706 445.826 748.435 451.419C750.839 456.361 753.633 456.231 752.268 451.289C751.878 449.793 751.748 448.297 751.943 447.972C753.113 446.086 758.96 448.688 760.065 451.614C760.974 453.89 760.909 454.28 759.415 455.776C755.582 459.613 742.717 454.801 740.963 448.818C740.313 446.737 742.133 442.965 744.602 441.469C746.356 440.363 747.72 440.168 752.463 440.233C755.582 440.298 758.311 440.168 758.505 439.973C760.78 437.697 747.915 435.876 743.497 437.827Z" fill="url(#paint30_linear_249_579)"/>
<path d="M845.497 566.827C842.768 567.998 839.455 571.965 839 574.631C837.7 581.264 844.587 588.158 854.138 589.979C858.751 590.824 861.805 590.174 864.404 587.703C866.288 585.882 866.613 585.166 866.613 582.565C866.613 576.842 862.65 572.485 856.932 571.9C850.435 571.314 847.706 574.826 850.435 580.419C852.839 585.361 855.633 585.231 854.268 580.289C853.878 578.793 853.748 577.297 853.943 576.972C855.113 575.086 860.96 577.688 862.065 580.614C862.974 582.89 862.909 583.28 861.415 584.776C857.582 588.613 844.717 583.801 842.963 577.818C842.313 575.737 844.133 571.965 846.602 570.469C848.356 569.363 849.72 569.168 854.463 569.233C857.582 569.298 860.311 569.168 860.505 568.973C862.78 566.697 849.915 564.876 845.497 566.827Z" fill="url(#paint31_linear_249_579)"/>
<path d="M33.0418 512.427C35.6152 513.529 35.9377 512.012 33.8249 508.704C31.0691 504.385 30.9801 498.134 33.6482 493.352C35.7183 489.536 35.0296 488.02 31.9493 489.722C28.3631 491.838 26.2927 496.297 26.5661 501.353C26.9313 506.777 29.3195 510.82 33.0418 512.427Z" fill="url(#paint32_linear_249_579)"/>
<path d="M55.1468 519.817C60.1098 522.205 63.9703 523.03 69.6698 522.936C76.1967 522.841 81.8967 521.643 87.7353 519.112C90.3097 518.008 92.5624 517.042 92.7462 517.042C92.8842 516.995 93.1132 518.696 93.2501 520.856C93.6609 526.969 97.3813 532.529 101.701 533.446C106.527 534.409 113.882 532.108 121.331 527.324C123.859 525.714 126.572 524.288 127.261 524.242C127.997 524.149 133.328 524.882 139.073 525.845C149.966 527.632 153.965 527.768 155.482 526.251C156.586 525.147 155.621 524.182 152.174 523.035C150.704 522.576 147.533 520.693 145.144 518.856C142.846 517.018 138.757 514.216 136.092 512.563C127.407 507.189 125.891 506.041 125.754 504.708C125.708 504.018 126.123 501.031 126.722 498.043C128.473 489.125 126.959 482.277 122.319 477.545C118.46 473.686 112.301 472.77 105.222 475.071L102.877 475.762L103.201 472.59C103.893 466.752 103.391 458.617 102.152 454.986C100.545 450.345 97.0997 446.623 93.561 445.66C89.4707 444.605 84.0001 446.768 78.712 451.596L74.3437 455.505L73.1954 453.805C62.9525 438.872 50.8678 430.926 39.2388 431.529C35.3318 431.76 30.2749 433.693 28.1596 435.808C26.1823 437.786 24.1115 442.889 23.926 446.474C23.2781 455.851 30.4901 464.994 45.4241 473.766C48.6407 475.695 51.4436 477.578 51.6272 478.038C51.8568 478.451 50.477 480.474 47.9476 483.371C41.6013 490.636 40.1288 494.222 41.045 500.749C42.0985 508.516 47.9321 516.465 55.1468 519.817ZM45.5015 504.837C42.5174 497.439 43.7605 492.98 50.8426 484.887C57.4649 477.346 57.2812 476.886 46.345 470.272C41.6581 467.425 38.9472 465.358 35.0881 461.499C30.4938 456.996 29.8508 456.077 28.6114 452.631C24.2504 440.728 34.2745 432.082 47.1421 436.765C54.7248 439.473 61.295 444.94 68.0933 454.129C71.5843 458.816 72.1816 459.413 73.7441 459.78C75.7664 460.147 75.3985 460.423 80.9626 455.042C93.5623 442.81 101.878 450.574 99.294 472.27C98.8325 476.223 98.7849 479.762 99.1065 480.084C99.9794 480.957 101.542 480.68 104.577 479.208C110.001 476.632 116.528 476.996 119.698 480.166C123.282 483.75 124.381 491.563 122.446 500.297C121.571 504.112 122.03 506.686 123.867 508.524C124.419 509.075 128.278 511.739 132.414 514.403C142.707 521.109 144.59 522.441 144.039 522.993C143.763 523.269 139.994 522.811 135.628 521.94C131.262 521.16 126.987 520.657 126.16 520.841C125.286 521.071 122.896 522.359 120.827 523.693C113.424 528.523 105.793 531.1 102.025 529.999C98.3942 528.852 95.5937 522.004 96.6992 516.764C97.3901 513.776 96.6556 511.846 94.9549 511.893C94.2654 511.939 91.8289 512.997 89.4842 514.147C77.8986 520.22 64.385 520.778 55.0109 515.634C51.4726 513.66 46.9706 508.606 45.5015 504.837Z" fill="url(#paint33_linear_249_579)"/>
<path d="M75.3643 533.413C76.4675 533.32 79.0876 532.905 81.1562 532.399L84.9715 531.524L86.5329 534.648C88.14 538.003 89.8859 539.473 90.8976 538.461C91.2195 538.14 91.2659 537.174 90.9906 536.255C90.7152 535.428 90.1188 532.9 89.7521 530.694C88.6057 525.041 87.7784 524.858 79.2735 528.585C75.4577 530.195 72.3775 531.713 72.3773 531.989C72.3769 533 73.5257 533.505 75.3643 533.413Z" fill="url(#paint34_linear_249_579)"/>
<path d="M130.611 536.237C135.299 536.051 141.321 535.266 142.792 534.622C144.401 533.84 143.804 532.599 141.736 532.462C138.932 532.326 127.165 533.894 126.613 534.446C125.417 535.642 127.072 536.376 130.611 536.237Z" fill="url(#paint35_linear_249_579)"/>
<path d="M145.101 512.375C151.534 515.405 154.246 515.726 152.96 513.244C152.363 512.096 142.989 507.412 140.874 507.229C137.703 506.909 140.23 509.987 145.101 512.375Z" fill="url(#paint36_linear_249_579)"/>
<path d="M82.578 440.747C83.0376 440.839 84.6464 440.516 86.2094 440.056C89.7491 438.905 92.369 438.95 96.1373 440.419C100.135 441.934 104.408 446.115 106.291 450.48C107.622 453.467 107.76 453.697 108.771 453.237C110.242 452.593 109.739 448.043 107.856 444.688C104.917 439.45 97.4269 434.811 92.0491 434.951C88.6478 435.045 84.3725 436.564 82.4871 438.449C81.0156 439.921 81.0153 440.472 82.578 440.747Z" fill="url(#paint37_linear_249_579)"/>
<path d="M448.292 2.4156C445.252 3.94699 441.686 7.74444 440.538 10.7614C438.696 15.6169 437.831 23.7155 438.832 27.8893C439.726 31.6205 439.408 31.9644 435.88 31.7402C428.981 31.388 422.837 34.4659 421.755 38.8715C420.936 42.1441 422.328 46.5585 425.381 50.3741C428.232 53.9039 434.151 57.9687 437.641 58.8707C440.125 59.4789 440.279 59.8432 438.76 62.1467C436.905 64.999 437.17 66.9416 440.006 70.4081C443.746 74.8615 448.841 77.7194 456.764 79.8325C467.941 82.7034 478.52 82.2403 482.069 78.6477C483.325 77.4772 486.418 70.3155 487.255 66.838C487.288 66.6964 488.562 66.9929 490.118 67.3553C492.178 67.8647 493.566 67.7995 495.527 67.0619C505.254 63.3254 517.924 43.4354 519.155 29.8989C519.575 25.5183 517.758 17.6613 515.718 15.0071C512.309 10.5412 506.209 9.06133 502.008 11.6065C499.203 13.2821 496.817 15.5929 494.151 19.2415C492.986 20.7914 491.886 22.0581 491.634 22.1187C491.381 22.1793 490.481 20.6562 489.554 18.7386C486.542 12.3051 481.497 9.10063 476.193 10.1049C473.334 10.7233 473.178 10.6271 471.123 7.90963C468.975 5.08085 464.322 2.11686 460.691 1.18188C458.993 0.786526 451.522 0.838761 450.557 1.27084C450.382 1.37952 449.354 1.82674 448.292 2.4156ZM457.299 6.54254C461.077 6.97425 464.512 8.759 466.961 11.4488L469.081 13.883L467.471 17.479C465.441 22.1118 464.971 25.1671 465.557 29.8416C466.045 33.269 465.883 33.7091 464.036 35.757C460.788 39.2106 459.294 48.8644 460.853 55.6463C461.157 56.9111 461.24 58.0949 461.096 58.33C460.967 58.6284 458.905 58.3872 456.514 57.8904C454.123 57.3935 450.58 57.1061 448.594 57.1811C442.129 57.5272 434.929 53.9702 429.958 48.0062C427.34 44.8889 426.375 41.9772 427.262 39.8251C428.212 37.6579 433.517 36.6536 438.771 37.6678C443.128 38.5626 445.605 38.3032 446.09 36.9831C446.252 36.5431 445.807 33.5734 445.097 30.333C443.078 20.5183 444.605 12.3947 449.177 8.89112C451.924 6.69437 453.741 6.19186 457.299 6.54254ZM479.048 14.7703C482.099 15.5103 484.712 19.1638 486.498 25.2224C489.111 33.8917 490.845 33.8773 496.713 24.9134C501.51 17.6109 504.687 14.9768 507.96 15.5297C510.666 15.9508 512.393 18.4126 513.621 23.5351C514.758 28.2781 513.85 34.247 510.934 41.0318C507.13 49.9688 497.786 61.4376 493.427 62.4828C491.405 62.9675 487.91 62.6017 487.743 61.906C487.761 61.7012 487.685 59.7131 487.69 57.505C487.723 52.3477 485.889 44.6956 483.733 40.9992C481.221 36.6526 477.544 33.856 473.046 32.9282C469.318 32.15 469.161 32.0538 469.07 30.0025C468.909 25.4269 470.597 20.2071 473.304 17.2844C476.218 14.1114 476.344 14.0811 479.048 14.7703ZM475.55 39.751C478.289 41.7024 480.46 45.462 481.658 50.458C483.368 57.8723 482.155 69.532 478.915 75.5251L477.343 78.4432L472.349 78.236C462.298 77.8369 451.899 74.3113 446.036 69.3637C442.846 66.6508 442.503 64.6601 444.975 63.265C447.684 61.7461 450.709 61.8234 457.58 63.4529C464.09 64.9684 465.824 64.954 466.643 63.3533C466.901 62.7565 466.711 59.4582 466.257 55.889C465.289 48.2298 465.552 43.7529 467.142 40.6299C468.122 38.5892 468.582 38.2783 470.617 38.1249C472.242 37.936 473.781 38.5033 475.55 39.751Z" fill="url(#paint38_linear_249_579)"/>
<defs>
<linearGradient id="paint0_linear_249_579" x1="413.839" y1="10.0594" x2="516.943" y2="85.6591" gradientUnits="userSpaceOnUse">
<stop stop-color="white"/>
<stop offset="1" stop-color="white"/>
</linearGradient>
<linearGradient id="paint1_linear_249_579" x1="413.839" y1="10.0594" x2="516.943" y2="85.6591" gradientUnits="userSpaceOnUse">
<stop stop-color="white"/>
<stop offset="1" stop-color="white"/>
</linearGradient>
<linearGradient id="paint2_linear_249_579" x1="413.839" y1="10.0594" x2="516.943" y2="85.6591" gradientUnits="userSpaceOnUse">
<stop stop-color="white"/>
<stop offset="1" stop-color="white"/>
</linearGradient>
<linearGradient id="paint3_linear_249_579" x1="413.839" y1="10.0594" x2="516.943" y2="85.6591" gradientUnits="userSpaceOnUse">
<stop stop-color="white"/>
<stop offset="1" stop-color="white"/>
</linearGradient>
<linearGradient id="paint4_linear_249_579" x1="413.839" y1="10.0594" x2="516.943" y2="85.6591" gradientUnits="userSpaceOnUse">
<stop stop-color="white"/>
<stop offset="1" stop-color="white"/>
</linearGradient>
<linearGradient id="paint5_linear_249_579" x1="413.839" y1="10.0594" x2="516.943" y2="85.6591" gradientUnits="userSpaceOnUse">
<stop stop-color="white"/>
<stop offset="1" stop-color="white"/>
</linearGradient>
<linearGradient id="paint6_linear_249_579" x1="413.839" y1="10.0594" x2="516.943" y2="85.6591" gradientUnits="userSpaceOnUse">
<stop stop-color="white"/>
<stop offset="1" stop-color="white"/>
</linearGradient>
<linearGradient id="paint7_linear_249_579" x1="413.839" y1="10.0594" x2="516.943" y2="85.6591" gradientUnits="userSpaceOnUse">
<stop stop-color="white"/>
<stop offset="1" stop-color="white"/>
</linearGradient>
<linearGradient id="paint8_linear_249_579" x1="413.839" y1="10.0594" x2="516.943" y2="85.6591" gradientUnits="userSpaceOnUse">
<stop stop-color="white"/>
<stop offset="1" stop-color="white"/>
</linearGradient>
<linearGradient id="paint9_linear_249_579" x1="413.839" y1="10.0594" x2="516.943" y2="85.6591" gradientUnits="userSpaceOnUse">
<stop stop-color="white"/>
<stop offset="1" stop-color="white"/>
</linearGradient>
<linearGradient id="paint10_linear_249_579" x1="413.839" y1="10.0594" x2="516.943" y2="85.6591" gradientUnits="userSpaceOnUse">
<stop stop-color="white"/>
<stop offset="1" stop-color="white"/>
</linearGradient>
<linearGradient id="paint11_linear_249_579" x1="413.839" y1="10.0594" x2="516.943" y2="85.6591" gradientUnits="userSpaceOnUse">
<stop stop-color="white"/>
<stop offset="1" stop-color="white"/>
</linearGradient>
<linearGradient id="paint12_linear_249_579" x1="413.839" y1="10.0594" x2="516.943" y2="85.6591" gradientUnits="userSpaceOnUse">
<stop stop-color="white"/>
<stop offset="1" stop-color="white"/>
</linearGradient>
<linearGradient id="paint13_linear_249_579" x1="413.839" y1="10.0594" x2="516.943" y2="85.6591" gradientUnits="userSpaceOnUse">
<stop stop-color="white"/>
<stop offset="1" stop-color="white"/>
</linearGradient>
<linearGradient id="paint14_linear_249_579" x1="413.839" y1="10.0594" x2="516.943" y2="85.6591" gradientUnits="userSpaceOnUse">
<stop stop-color="white"/>
<stop offset="1" stop-color="white"/>
</linearGradient>
<linearGradient id="paint15_linear_249_579" x1="413.839" y1="10.0594" x2="516.943" y2="85.6591" gradientUnits="userSpaceOnUse">
<stop stop-color="white"/>
<stop offset="1" stop-color="white"/>
</linearGradient>
<linearGradient id="paint16_linear_249_579" x1="413.839" y1="10.0594" x2="516.943" y2="85.6591" gradientUnits="userSpaceOnUse">
<stop stop-color="white"/>
<stop offset="1" stop-color="white"/>
</linearGradient>
<linearGradient id="paint17_linear_249_579" x1="413.839" y1="10.0594" x2="516.943" y2="85.6591" gradientUnits="userSpaceOnUse">
<stop stop-color="white"/>
<stop offset="1" stop-color="white"/>
</linearGradient>
<linearGradient id="paint18_linear_249_579" x1="413.839" y1="10.0594" x2="516.943" y2="85.6591" gradientUnits="userSpaceOnUse">
<stop stop-color="white"/>
<stop offset="1" stop-color="white"/>
</linearGradient>
<linearGradient id="paint19_linear_249_579" x1="413.839" y1="10.0594" x2="516.943" y2="85.6591" gradientUnits="userSpaceOnUse">
<stop stop-color="white"/>
<stop offset="1" stop-color="white"/>
</linearGradient>
<linearGradient id="paint20_linear_249_579" x1="413.839" y1="10.0594" x2="516.943" y2="85.6591" gradientUnits="userSpaceOnUse">
<stop stop-color="white"/>
<stop offset="1" stop-color="white"/>
</linearGradient>
<linearGradient id="paint21_linear_249_579" x1="413.839" y1="10.0594" x2="516.943" y2="85.6591" gradientUnits="userSpaceOnUse">
<stop stop-color="white"/>
<stop offset="1" stop-color="white"/>
</linearGradient>
<linearGradient id="paint22_linear_249_579" x1="413.839" y1="10.0594" x2="516.943" y2="85.6591" gradientUnits="userSpaceOnUse">
<stop stop-color="white"/>
<stop offset="1" stop-color="white"/>
</linearGradient>
<linearGradient id="paint23_linear_249_579" x1="413.839" y1="10.0594" x2="516.943" y2="85.6591" gradientUnits="userSpaceOnUse">
<stop stop-color="white"/>
<stop offset="1" stop-color="white"/>
</linearGradient>
<linearGradient id="paint24_linear_249_579" x1="413.839" y1="10.0594" x2="516.943" y2="85.6591" gradientUnits="userSpaceOnUse">
<stop stop-color="white"/>
<stop offset="1" stop-color="white"/>
</linearGradient>
<linearGradient id="paint25_linear_249_579" x1="413.839" y1="10.0594" x2="516.943" y2="85.6591" gradientUnits="userSpaceOnUse">
<stop stop-color="white"/>
<stop offset="1" stop-color="white"/>
</linearGradient>
<linearGradient id="paint26_linear_249_579" x1="413.839" y1="10.0594" x2="516.943" y2="85.6591" gradientUnits="userSpaceOnUse">
<stop stop-color="white"/>
<stop offset="1" stop-color="white"/>
</linearGradient>
<linearGradient id="paint27_linear_249_579" x1="413.839" y1="10.0594" x2="516.943" y2="85.6591" gradientUnits="userSpaceOnUse">
<stop stop-color="white"/>
<stop offset="1" stop-color="white"/>
</linearGradient>
<linearGradient id="paint28_linear_249_579" x1="413.839" y1="10.0594" x2="516.943" y2="85.6591" gradientUnits="userSpaceOnUse">
<stop stop-color="white"/>
<stop offset="1" stop-color="white"/>
</linearGradient>
<linearGradient id="paint29_linear_249_579" x1="413.839" y1="10.0594" x2="516.943" y2="85.6591" gradientUnits="userSpaceOnUse">
<stop stop-color="white"/>
<stop offset="1" stop-color="white"/>
</linearGradient>
<linearGradient id="paint30_linear_249_579" x1="413.839" y1="10.0594" x2="516.943" y2="85.6591" gradientUnits="userSpaceOnUse">
<stop stop-color="white"/>
<stop offset="1" stop-color="white"/>
</linearGradient>
<linearGradient id="paint31_linear_249_579" x1="413.839" y1="10.0594" x2="516.943" y2="85.6591" gradientUnits="userSpaceOnUse">
<stop stop-color="white"/>
<stop offset="1" stop-color="white"/>
</linearGradient>
<linearGradient id="paint32_linear_249_579" x1="413.839" y1="10.0594" x2="516.943" y2="85.6591" gradientUnits="userSpaceOnUse">
<stop stop-color="white"/>
<stop offset="1" stop-color="white"/>
</linearGradient>
<linearGradient id="paint33_linear_249_579" x1="413.839" y1="10.0594" x2="516.943" y2="85.6591" gradientUnits="userSpaceOnUse">
<stop stop-color="white"/>
<stop offset="1" stop-color="white"/>
</linearGradient>
<linearGradient id="paint34_linear_249_579" x1="413.839" y1="10.0594" x2="516.943" y2="85.6591" gradientUnits="userSpaceOnUse">
<stop stop-color="white"/>
<stop offset="1" stop-color="white"/>
</linearGradient>
<linearGradient id="paint35_linear_249_579" x1="413.839" y1="10.0594" x2="516.943" y2="85.6591" gradientUnits="userSpaceOnUse">
<stop stop-color="white"/>
<stop offset="1" stop-color="white"/>
</linearGradient>
<linearGradient id="paint36_linear_249_579" x1="413.839" y1="10.0594" x2="516.943" y2="85.6591" gradientUnits="userSpaceOnUse">
<stop stop-color="white"/>
<stop offset="1" stop-color="white"/>
</linearGradient>
<linearGradient id="paint37_linear_249_579" x1="413.839" y1="10.0594" x2="516.943" y2="85.6591" gradientUnits="userSpaceOnUse">
<stop stop-color="white"/>
<stop offset="1" stop-color="white"/>
</linearGradient>
<linearGradient id="paint38_linear_249_579" x1="413.839" y1="10.0594" x2="516.943" y2="85.6591" gradientUnits="userSpaceOnUse">
<stop stop-color="white"/>
<stop offset="1" stop-color="white"/>
</linearGradient>
</defs>
</svg>
