<?xml version="1.0" encoding="UTF-8"?>
<svg id="Layer_1" data-name="Layer 1" xmlns="http://www.w3.org/2000/svg" version="1.1" viewBox="0 0 199.9 193.8">
  <defs>
    <style>
      .cls-1 {
        fill: #000;
      }

      .cls-1, .cls-2 {
        stroke-width: 0px;
      }

      .cls-2 {
        fill: #fff;
      }
    </style>
  </defs>
  <path class="cls-1" d="M99.3,92.5h62.5c9.6,0,17.6,1.5,24.1,4.4,4,1.8,7.3,4.1,10.1,6.8.1-1.9.2-3.8.2-5.7C196.1,43.9,152.2,0,98,0S35.5,16.5,17.8,41.8h81.5v50.7Z"/>
  <path class="cls-1" d="M86.2,135.6c-8.7,7.8-21.7,11.7-39,11.7s-21.2-1.8-28.9-5.3c-4.4-2-8.1-4.5-11.2-7.5,14.1,35.3,48.2,60.4,88.2,61.6v-72.6c-2.2,4.7-5.2,8.8-9,12.2Z"/>
  <path class="cls-1" d="M121.5,164.3v28.9c19.3-4.7,36.3-15.2,49.2-29.4-2.8.3-5.8.5-9,.5h-40.3Z"/>
  <path class="cls-1" d="M170.8,115.5c-2.7-1.2-6-1.8-10-1.8h-40.6v29.5h40.6c3.9,0,7.3-.6,10-1.9,2.7-1.2,4.7-2.9,6.1-5.1,1.3-2.2,2-4.8,2-7.8s-.7-5.6-2-7.8c-1.3-2.2-3.4-3.9-6.1-5.1Z"/>
  <path class="cls-1" d="M21.4,102.2c0,4.9.9,9.2,2.8,12.7,1.9,3.5,4.7,6.1,8.6,7.9,3.8,1.8,8.6,2.7,14.4,2.7,8.6,0,15-2,19.3-6,4.3-4,6.4-9.7,6.4-17.2v-38.5H9.9v-8.5C3.5,68.1,0,82.7,0,98s0,1.5,0,2.2h21.4v1.9Z"/>
  <path class="cls-2" d="M95.2,196.1h0c0,0,26.3,0,26.3,0v-2.9c-7.5,1.9-15.4,2.8-23.5,2.8s-1.9,0-2.9,0Z"/>
  <path class="cls-2" d="M185.9,97c-6.5-3-14.5-4.4-24.1-4.4h-62.5v-50.7H17.8c-3,4.2-5.6,8.7-7.9,13.4v8.5h63.1v38.5c0,7.5-2.1,13.2-6.4,17.2-4.3,4-10.7,6-19.3,6s-10.5-.9-14.4-2.7c-3.8-1.8-6.7-4.4-8.6-7.9-1.9-3.5-2.8-7.7-2.8-12.7v-1.9H0c.3,12.1,2.7,23.6,7,34.3,3.1,3,6.9,5.5,11.2,7.5,7.7,3.6,17.4,5.3,28.9,5.3,17.3,0,30.3-3.9,39-11.7,3.9-3.4,6.9-7.5,9-12.2v72.6c.9,0,1.9,0,2.9,0,8.1,0,16-1,23.5-2.8v-28.9h40.3c3.2,0,6.1-.2,9-.5,14.5-16.1,23.8-37,25.2-60-2.7-2.7-6.1-5-10.1-6.8ZM176.8,136.2c-1.3,2.2-3.4,3.9-6.1,5.1-2.7,1.2-6,1.9-10,1.9h-40.6v-29.5h40.6c3.9,0,7.3.6,10,1.8,2.7,1.2,4.7,2.9,6.1,5.1,1.3,2.2,2,4.8,2,7.8s-.7,5.7-2,7.8Z"/>
</svg>